<?xml version="1.0" encoding="utf-8" standalone="no"?>
<!DOCTYPE svg PUBLIC "-//W3C//DTD SVG 1.1//EN"
  "http://www.w3.org/Graphics/SVG/1.1/DTD/svg11.dtd">
<svg xmlns:xlink="http://www.w3.org/1999/xlink" width="936pt" height="576pt" viewBox="0 0 936 576" xmlns="http://www.w3.org/2000/svg" version="1.1">
 <metadata>
  <rdf:RDF xmlns:dc="http://purl.org/dc/elements/1.1/" xmlns:cc="http://creativecommons.org/ns#" xmlns:rdf="http://www.w3.org/1999/02/22-rdf-syntax-ns#">
   <cc:Work>
    <dc:type rdf:resource="http://purl.org/dc/dcmitype/StillImage"/>
    <dc:date>2022-03-11T13:26:04.913469</dc:date>
    <dc:format>image/svg+xml</dc:format>
    <dc:creator>
     <cc:Agent>
      <dc:title>Matplotlib v3.5.1, https://matplotlib.org/</dc:title>
     </cc:Agent>
    </dc:creator>
   </cc:Work>
  </rdf:RDF>
 </metadata>
 <defs>
  <style type="text/css">*{stroke-linejoin: round; stroke-linecap: butt}</style>
 </defs>
 <g id="figure_1">
  <g id="patch_1">
   <path d="M 0 576 
L 936 576 
L 936 0 
L 0 0 
L 0 576 
z
" style="fill: none"/>
  </g>
  <g id="axes_1">
   <g id="patch_2">
    <path d="M 117 504 
L 842.4 504 
L 842.4 69.12 
L 117 69.12 
z
" style="fill: #ffffff"/>
   </g>
   <g id="PathCollection_1">
    <defs>
     <path id="m60d7a40278" d="M 0 3 
C 0.795609 3 1.55874 2.683901 2.12132 2.12132 
C 2.683901 1.55874 3 0.795609 3 0 
C 3 -0.795609 2.683901 -1.55874 2.12132 -2.12132 
C 1.55874 -2.683901 0.795609 -3 0 -3 
C -0.795609 -3 -1.55874 -2.683901 -2.12132 -2.12132 
C -2.683901 -1.55874 -3 -0.795609 -3 0 
C -3 0.795609 -2.683901 1.55874 -2.12132 2.12132 
C -1.55874 2.683901 -0.795609 3 0 3 
z
" style="stroke: #1f77b4"/>
    </defs>
    <g clip-path="url(#p36bad32ffc)">
     <use xlink:href="#m60d7a40278" x="515.109316" y="431.731076" style="fill: #1f77b4; stroke: #1f77b4"/>
     <use xlink:href="#m60d7a40278" x="635.798366" y="425.962652" style="fill: #1f77b4; stroke: #1f77b4"/>
     <use xlink:href="#m60d7a40278" x="554.244553" y="430.635625" style="fill: #1f77b4; stroke: #1f77b4"/>
     <use xlink:href="#m60d7a40278" x="512.258261" y="432.23363" style="fill: #1f77b4; stroke: #1f77b4"/>
     <use xlink:href="#m60d7a40278" x="424.319191" y="438.122625" style="fill: #1f77b4; stroke: #1f77b4"/>
     <use xlink:href="#m60d7a40278" x="585.53159" y="428.733905" style="fill: #1f77b4; stroke: #1f77b4"/>
     <use xlink:href="#m60d7a40278" x="434.425763" y="437.525278" style="fill: #1f77b4; stroke: #1f77b4"/>
     <use xlink:href="#m60d7a40278" x="763.892135" y="419.668574" style="fill: #1f77b4; stroke: #1f77b4"/>
     <use xlink:href="#m60d7a40278" x="816.040966" y="418.086555" style="fill: #1f77b4; stroke: #1f77b4"/>
     <use xlink:href="#m60d7a40278" x="395.148478" y="439.205561" style="fill: #1f77b4; stroke: #1f77b4"/>
     <use xlink:href="#m60d7a40278" x="691.317343" y="424.249589" style="fill: #1f77b4; stroke: #1f77b4"/>
     <use xlink:href="#m60d7a40278" x="500.660375" y="432.852579" style="fill: #1f77b4; stroke: #1f77b4"/>
     <use xlink:href="#m60d7a40278" x="529.059525" y="431.939435" style="fill: #1f77b4; stroke: #1f77b4"/>
     <use xlink:href="#m60d7a40278" x="788.427801" y="419.232505" style="fill: #1f77b4; stroke: #1f77b4"/>
     <use xlink:href="#m60d7a40278" x="168.529557" y="453.361375" style="fill: #1f77b4; stroke: #1f77b4"/>
     <use xlink:href="#m60d7a40278" x="180.203594" y="451.557298" style="fill: #1f77b4; stroke: #1f77b4"/>
     <use xlink:href="#m60d7a40278" x="131.666426" y="454.652829" style="fill: #1f77b4; stroke: #1f77b4"/>
     <use xlink:href="#m60d7a40278" x="720.982436" y="422.227958" style="fill: #1f77b4; stroke: #1f77b4"/>
     <use xlink:href="#m60d7a40278" x="681.474907" y="423.503659" style="fill: #1f77b4; stroke: #1f77b4"/>
     <use xlink:href="#m60d7a40278" x="748.106812" y="420.858775" style="fill: #1f77b4; stroke: #1f77b4"/>
    </g>
   </g>
   <g id="matplotlib.axis_1">
    <g id="xtick_1">
     <g id="line2d_1">
      <path d="M 117 504 
L 117 69.12 
" clip-path="url(#p36bad32ffc)" style="fill: none; stroke: #b0b0b0; stroke-width: 0.8; stroke-linecap: square"/>
     </g>
     <g id="line2d_2">
      <defs>
       <path id="me8ba47dc00" d="M 0 0 
L 0 3.5 
" style="stroke: #000000; stroke-width: 0.8"/>
      </defs>
      <g>
       <use xlink:href="#me8ba47dc00" x="117" y="504" style="stroke: #000000; stroke-width: 0.8"/>
      </g>
     </g>
     <g id="text_1">
      <!-- −1.00 -->
      <g transform="translate(101.677344 518.598438)scale(0.1 -0.1)">
       <defs>
        <path id="DejaVuSans-2212" d="M 678 2272 
L 4684 2272 
L 4684 1741 
L 678 1741 
L 678 2272 
z
" transform="scale(0.015625)"/>
        <path id="DejaVuSans-31" d="M 794 531 
L 1825 531 
L 1825 4091 
L 703 3866 
L 703 4441 
L 1819 4666 
L 2450 4666 
L 2450 531 
L 3481 531 
L 3481 0 
L 794 0 
L 794 531 
z
" transform="scale(0.015625)"/>
        <path id="DejaVuSans-2e" d="M 684 794 
L 1344 794 
L 1344 0 
L 684 0 
L 684 794 
z
" transform="scale(0.015625)"/>
        <path id="DejaVuSans-30" d="M 2034 4250 
Q 1547 4250 1301 3770 
Q 1056 3291 1056 2328 
Q 1056 1369 1301 889 
Q 1547 409 2034 409 
Q 2525 409 2770 889 
Q 3016 1369 3016 2328 
Q 3016 3291 2770 3770 
Q 2525 4250 2034 4250 
z
M 2034 4750 
Q 2819 4750 3233 4129 
Q 3647 3509 3647 2328 
Q 3647 1150 3233 529 
Q 2819 -91 2034 -91 
Q 1250 -91 836 529 
Q 422 1150 422 2328 
Q 422 3509 836 4129 
Q 1250 4750 2034 4750 
z
" transform="scale(0.015625)"/>
       </defs>
       <use xlink:href="#DejaVuSans-2212"/>
       <use xlink:href="#DejaVuSans-31" x="83.789062"/>
       <use xlink:href="#DejaVuSans-2e" x="147.412109"/>
       <use xlink:href="#DejaVuSans-30" x="179.199219"/>
       <use xlink:href="#DejaVuSans-30" x="242.822266"/>
      </g>
     </g>
    </g>
    <g id="xtick_2">
     <g id="line2d_3">
      <path d="M 207.675 504 
L 207.675 69.12 
" clip-path="url(#p36bad32ffc)" style="fill: none; stroke: #b0b0b0; stroke-width: 0.8; stroke-linecap: square"/>
     </g>
     <g id="line2d_4">
      <g>
       <use xlink:href="#me8ba47dc00" x="207.675" y="504" style="stroke: #000000; stroke-width: 0.8"/>
      </g>
     </g>
     <g id="text_2">
      <!-- −0.75 -->
      <g transform="translate(192.352344 518.598438)scale(0.1 -0.1)">
       <defs>
        <path id="DejaVuSans-37" d="M 525 4666 
L 3525 4666 
L 3525 4397 
L 1831 0 
L 1172 0 
L 2766 4134 
L 525 4134 
L 525 4666 
z
" transform="scale(0.015625)"/>
        <path id="DejaVuSans-35" d="M 691 4666 
L 3169 4666 
L 3169 4134 
L 1269 4134 
L 1269 2991 
Q 1406 3038 1543 3061 
Q 1681 3084 1819 3084 
Q 2600 3084 3056 2656 
Q 3513 2228 3513 1497 
Q 3513 744 3044 326 
Q 2575 -91 1722 -91 
Q 1428 -91 1123 -41 
Q 819 9 494 109 
L 494 744 
Q 775 591 1075 516 
Q 1375 441 1709 441 
Q 2250 441 2565 725 
Q 2881 1009 2881 1497 
Q 2881 1984 2565 2268 
Q 2250 2553 1709 2553 
Q 1456 2553 1204 2497 
Q 953 2441 691 2322 
L 691 4666 
z
" transform="scale(0.015625)"/>
       </defs>
       <use xlink:href="#DejaVuSans-2212"/>
       <use xlink:href="#DejaVuSans-30" x="83.789062"/>
       <use xlink:href="#DejaVuSans-2e" x="147.412109"/>
       <use xlink:href="#DejaVuSans-37" x="179.199219"/>
       <use xlink:href="#DejaVuSans-35" x="242.822266"/>
      </g>
     </g>
    </g>
    <g id="xtick_3">
     <g id="line2d_5">
      <path d="M 298.35 504 
L 298.35 69.12 
" clip-path="url(#p36bad32ffc)" style="fill: none; stroke: #b0b0b0; stroke-width: 0.8; stroke-linecap: square"/>
     </g>
     <g id="line2d_6">
      <g>
       <use xlink:href="#me8ba47dc00" x="298.35" y="504" style="stroke: #000000; stroke-width: 0.8"/>
      </g>
     </g>
     <g id="text_3">
      <!-- −0.50 -->
      <g transform="translate(283.027344 518.598438)scale(0.1 -0.1)">
       <use xlink:href="#DejaVuSans-2212"/>
       <use xlink:href="#DejaVuSans-30" x="83.789062"/>
       <use xlink:href="#DejaVuSans-2e" x="147.412109"/>
       <use xlink:href="#DejaVuSans-35" x="179.199219"/>
       <use xlink:href="#DejaVuSans-30" x="242.822266"/>
      </g>
     </g>
    </g>
    <g id="xtick_4">
     <g id="line2d_7">
      <path d="M 389.025 504 
L 389.025 69.12 
" clip-path="url(#p36bad32ffc)" style="fill: none; stroke: #b0b0b0; stroke-width: 0.8; stroke-linecap: square"/>
     </g>
     <g id="line2d_8">
      <g>
       <use xlink:href="#me8ba47dc00" x="389.025" y="504" style="stroke: #000000; stroke-width: 0.8"/>
      </g>
     </g>
     <g id="text_4">
      <!-- −0.25 -->
      <g transform="translate(373.702344 518.598438)scale(0.1 -0.1)">
       <defs>
        <path id="DejaVuSans-32" d="M 1228 531 
L 3431 531 
L 3431 0 
L 469 0 
L 469 531 
Q 828 903 1448 1529 
Q 2069 2156 2228 2338 
Q 2531 2678 2651 2914 
Q 2772 3150 2772 3378 
Q 2772 3750 2511 3984 
Q 2250 4219 1831 4219 
Q 1534 4219 1204 4116 
Q 875 4013 500 3803 
L 500 4441 
Q 881 4594 1212 4672 
Q 1544 4750 1819 4750 
Q 2544 4750 2975 4387 
Q 3406 4025 3406 3419 
Q 3406 3131 3298 2873 
Q 3191 2616 2906 2266 
Q 2828 2175 2409 1742 
Q 1991 1309 1228 531 
z
" transform="scale(0.015625)"/>
       </defs>
       <use xlink:href="#DejaVuSans-2212"/>
       <use xlink:href="#DejaVuSans-30" x="83.789062"/>
       <use xlink:href="#DejaVuSans-2e" x="147.412109"/>
       <use xlink:href="#DejaVuSans-32" x="179.199219"/>
       <use xlink:href="#DejaVuSans-35" x="242.822266"/>
      </g>
     </g>
    </g>
    <g id="xtick_5">
     <g id="line2d_9">
      <path d="M 479.7 504 
L 479.7 69.12 
" clip-path="url(#p36bad32ffc)" style="fill: none; stroke: #b0b0b0; stroke-width: 0.8; stroke-linecap: square"/>
     </g>
     <g id="line2d_10">
      <g>
       <use xlink:href="#me8ba47dc00" x="479.7" y="504" style="stroke: #000000; stroke-width: 0.8"/>
      </g>
     </g>
     <g id="text_5">
      <!-- 0.00 -->
      <g transform="translate(468.567187 518.598438)scale(0.1 -0.1)">
       <use xlink:href="#DejaVuSans-30"/>
       <use xlink:href="#DejaVuSans-2e" x="63.623047"/>
       <use xlink:href="#DejaVuSans-30" x="95.410156"/>
       <use xlink:href="#DejaVuSans-30" x="159.033203"/>
      </g>
     </g>
    </g>
    <g id="xtick_6">
     <g id="line2d_11">
      <path d="M 570.375 504 
L 570.375 69.12 
" clip-path="url(#p36bad32ffc)" style="fill: none; stroke: #b0b0b0; stroke-width: 0.8; stroke-linecap: square"/>
     </g>
     <g id="line2d_12">
      <g>
       <use xlink:href="#me8ba47dc00" x="570.375" y="504" style="stroke: #000000; stroke-width: 0.8"/>
      </g>
     </g>
     <g id="text_6">
      <!-- 0.25 -->
      <g transform="translate(559.242188 518.598438)scale(0.1 -0.1)">
       <use xlink:href="#DejaVuSans-30"/>
       <use xlink:href="#DejaVuSans-2e" x="63.623047"/>
       <use xlink:href="#DejaVuSans-32" x="95.410156"/>
       <use xlink:href="#DejaVuSans-35" x="159.033203"/>
      </g>
     </g>
    </g>
    <g id="xtick_7">
     <g id="line2d_13">
      <path d="M 661.05 504 
L 661.05 69.12 
" clip-path="url(#p36bad32ffc)" style="fill: none; stroke: #b0b0b0; stroke-width: 0.8; stroke-linecap: square"/>
     </g>
     <g id="line2d_14">
      <g>
       <use xlink:href="#me8ba47dc00" x="661.05" y="504" style="stroke: #000000; stroke-width: 0.8"/>
      </g>
     </g>
     <g id="text_7">
      <!-- 0.50 -->
      <g transform="translate(649.917187 518.598438)scale(0.1 -0.1)">
       <use xlink:href="#DejaVuSans-30"/>
       <use xlink:href="#DejaVuSans-2e" x="63.623047"/>
       <use xlink:href="#DejaVuSans-35" x="95.410156"/>
       <use xlink:href="#DejaVuSans-30" x="159.033203"/>
      </g>
     </g>
    </g>
    <g id="xtick_8">
     <g id="line2d_15">
      <path d="M 751.725 504 
L 751.725 69.12 
" clip-path="url(#p36bad32ffc)" style="fill: none; stroke: #b0b0b0; stroke-width: 0.8; stroke-linecap: square"/>
     </g>
     <g id="line2d_16">
      <g>
       <use xlink:href="#me8ba47dc00" x="751.725" y="504" style="stroke: #000000; stroke-width: 0.8"/>
      </g>
     </g>
     <g id="text_8">
      <!-- 0.75 -->
      <g transform="translate(740.592187 518.598438)scale(0.1 -0.1)">
       <use xlink:href="#DejaVuSans-30"/>
       <use xlink:href="#DejaVuSans-2e" x="63.623047"/>
       <use xlink:href="#DejaVuSans-37" x="95.410156"/>
       <use xlink:href="#DejaVuSans-35" x="159.033203"/>
      </g>
     </g>
    </g>
    <g id="xtick_9">
     <g id="line2d_17">
      <path d="M 842.4 504 
L 842.4 69.12 
" clip-path="url(#p36bad32ffc)" style="fill: none; stroke: #b0b0b0; stroke-width: 0.8; stroke-linecap: square"/>
     </g>
     <g id="line2d_18">
      <g>
       <use xlink:href="#me8ba47dc00" x="842.4" y="504" style="stroke: #000000; stroke-width: 0.8"/>
      </g>
     </g>
     <g id="text_9">
      <!-- 1.00 -->
      <g transform="translate(831.267187 518.598438)scale(0.1 -0.1)">
       <use xlink:href="#DejaVuSans-31"/>
       <use xlink:href="#DejaVuSans-2e" x="63.623047"/>
       <use xlink:href="#DejaVuSans-30" x="95.410156"/>
       <use xlink:href="#DejaVuSans-30" x="159.033203"/>
      </g>
     </g>
    </g>
    <g id="text_10">
     <!-- x -->
     <g transform="translate(476.740625 532.276562)scale(0.1 -0.1)">
      <defs>
       <path id="DejaVuSans-78" d="M 3513 3500 
L 2247 1797 
L 3578 0 
L 2900 0 
L 1881 1375 
L 863 0 
L 184 0 
L 1544 1831 
L 300 3500 
L 978 3500 
L 1906 2253 
L 2834 3500 
L 3513 3500 
z
" transform="scale(0.015625)"/>
      </defs>
      <use xlink:href="#DejaVuSans-78"/>
     </g>
    </g>
   </g>
   <g id="matplotlib.axis_2">
    <g id="ytick_1">
     <g id="line2d_19">
      <path d="M 117 490.704993 
L 842.4 490.704993 
" clip-path="url(#p36bad32ffc)" style="fill: none; stroke: #b0b0b0; stroke-width: 0.8; stroke-linecap: square"/>
     </g>
     <g id="line2d_20">
      <defs>
       <path id="m1183a5a56b" d="M 0 0 
L -3.5 0 
" style="stroke: #000000; stroke-width: 0.8"/>
      </defs>
      <g>
       <use xlink:href="#m1183a5a56b" x="117" y="490.704993" style="stroke: #000000; stroke-width: 0.8"/>
      </g>
     </g>
     <g id="text_11">
      <!-- 0 -->
      <g transform="translate(103.6375 494.504212)scale(0.1 -0.1)">
       <use xlink:href="#DejaVuSans-30"/>
      </g>
     </g>
    </g>
    <g id="ytick_2">
     <g id="line2d_21">
      <path d="M 117 401.412166 
L 842.4 401.412166 
" clip-path="url(#p36bad32ffc)" style="fill: none; stroke: #b0b0b0; stroke-width: 0.8; stroke-linecap: square"/>
     </g>
     <g id="line2d_22">
      <g>
       <use xlink:href="#m1183a5a56b" x="117" y="401.412166" style="stroke: #000000; stroke-width: 0.8"/>
      </g>
     </g>
     <g id="text_12">
      <!-- 100 -->
      <g transform="translate(90.9125 405.211385)scale(0.1 -0.1)">
       <use xlink:href="#DejaVuSans-31"/>
       <use xlink:href="#DejaVuSans-30" x="63.623047"/>
       <use xlink:href="#DejaVuSans-30" x="127.246094"/>
      </g>
     </g>
    </g>
    <g id="ytick_3">
     <g id="line2d_23">
      <path d="M 117 312.119339 
L 842.4 312.119339 
" clip-path="url(#p36bad32ffc)" style="fill: none; stroke: #b0b0b0; stroke-width: 0.8; stroke-linecap: square"/>
     </g>
     <g id="line2d_24">
      <g>
       <use xlink:href="#m1183a5a56b" x="117" y="312.119339" style="stroke: #000000; stroke-width: 0.8"/>
      </g>
     </g>
     <g id="text_13">
      <!-- 200 -->
      <g transform="translate(90.9125 315.918558)scale(0.1 -0.1)">
       <use xlink:href="#DejaVuSans-32"/>
       <use xlink:href="#DejaVuSans-30" x="63.623047"/>
       <use xlink:href="#DejaVuSans-30" x="127.246094"/>
      </g>
     </g>
    </g>
    <g id="ytick_4">
     <g id="line2d_25">
      <path d="M 117 222.826513 
L 842.4 222.826513 
" clip-path="url(#p36bad32ffc)" style="fill: none; stroke: #b0b0b0; stroke-width: 0.8; stroke-linecap: square"/>
     </g>
     <g id="line2d_26">
      <g>
       <use xlink:href="#m1183a5a56b" x="117" y="222.826513" style="stroke: #000000; stroke-width: 0.8"/>
      </g>
     </g>
     <g id="text_14">
      <!-- 300 -->
      <g transform="translate(90.9125 226.625732)scale(0.1 -0.1)">
       <defs>
        <path id="DejaVuSans-33" d="M 2597 2516 
Q 3050 2419 3304 2112 
Q 3559 1806 3559 1356 
Q 3559 666 3084 287 
Q 2609 -91 1734 -91 
Q 1441 -91 1130 -33 
Q 819 25 488 141 
L 488 750 
Q 750 597 1062 519 
Q 1375 441 1716 441 
Q 2309 441 2620 675 
Q 2931 909 2931 1356 
Q 2931 1769 2642 2001 
Q 2353 2234 1838 2234 
L 1294 2234 
L 1294 2753 
L 1863 2753 
Q 2328 2753 2575 2939 
Q 2822 3125 2822 3475 
Q 2822 3834 2567 4026 
Q 2313 4219 1838 4219 
Q 1578 4219 1281 4162 
Q 984 4106 628 3988 
L 628 4550 
Q 988 4650 1302 4700 
Q 1616 4750 1894 4750 
Q 2613 4750 3031 4423 
Q 3450 4097 3450 3541 
Q 3450 3153 3228 2886 
Q 3006 2619 2597 2516 
z
" transform="scale(0.015625)"/>
       </defs>
       <use xlink:href="#DejaVuSans-33"/>
       <use xlink:href="#DejaVuSans-30" x="63.623047"/>
       <use xlink:href="#DejaVuSans-30" x="127.246094"/>
      </g>
     </g>
    </g>
    <g id="ytick_5">
     <g id="line2d_27">
      <path d="M 117 133.533686 
L 842.4 133.533686 
" clip-path="url(#p36bad32ffc)" style="fill: none; stroke: #b0b0b0; stroke-width: 0.8; stroke-linecap: square"/>
     </g>
     <g id="line2d_28">
      <g>
       <use xlink:href="#m1183a5a56b" x="117" y="133.533686" style="stroke: #000000; stroke-width: 0.8"/>
      </g>
     </g>
     <g id="text_15">
      <!-- 400 -->
      <g transform="translate(90.9125 137.332905)scale(0.1 -0.1)">
       <defs>
        <path id="DejaVuSans-34" d="M 2419 4116 
L 825 1625 
L 2419 1625 
L 2419 4116 
z
M 2253 4666 
L 3047 4666 
L 3047 1625 
L 3713 1625 
L 3713 1100 
L 3047 1100 
L 3047 0 
L 2419 0 
L 2419 1100 
L 313 1100 
L 313 1709 
L 2253 4666 
z
" transform="scale(0.015625)"/>
       </defs>
       <use xlink:href="#DejaVuSans-34"/>
       <use xlink:href="#DejaVuSans-30" x="63.623047"/>
       <use xlink:href="#DejaVuSans-30" x="127.246094"/>
      </g>
     </g>
    </g>
    <g id="text_16">
     <!-- teach -->
     <g transform="translate(84.832812 300.57875)rotate(-90)scale(0.1 -0.1)">
      <defs>
       <path id="DejaVuSans-74" d="M 1172 4494 
L 1172 3500 
L 2356 3500 
L 2356 3053 
L 1172 3053 
L 1172 1153 
Q 1172 725 1289 603 
Q 1406 481 1766 481 
L 2356 481 
L 2356 0 
L 1766 0 
Q 1100 0 847 248 
Q 594 497 594 1153 
L 594 3053 
L 172 3053 
L 172 3500 
L 594 3500 
L 594 4494 
L 1172 4494 
z
" transform="scale(0.015625)"/>
       <path id="DejaVuSans-65" d="M 3597 1894 
L 3597 1613 
L 953 1613 
Q 991 1019 1311 708 
Q 1631 397 2203 397 
Q 2534 397 2845 478 
Q 3156 559 3463 722 
L 3463 178 
Q 3153 47 2828 -22 
Q 2503 -91 2169 -91 
Q 1331 -91 842 396 
Q 353 884 353 1716 
Q 353 2575 817 3079 
Q 1281 3584 2069 3584 
Q 2775 3584 3186 3129 
Q 3597 2675 3597 1894 
z
M 3022 2063 
Q 3016 2534 2758 2815 
Q 2500 3097 2075 3097 
Q 1594 3097 1305 2825 
Q 1016 2553 972 2059 
L 3022 2063 
z
" transform="scale(0.015625)"/>
       <path id="DejaVuSans-61" d="M 2194 1759 
Q 1497 1759 1228 1600 
Q 959 1441 959 1056 
Q 959 750 1161 570 
Q 1363 391 1709 391 
Q 2188 391 2477 730 
Q 2766 1069 2766 1631 
L 2766 1759 
L 2194 1759 
z
M 3341 1997 
L 3341 0 
L 2766 0 
L 2766 531 
Q 2569 213 2275 61 
Q 1981 -91 1556 -91 
Q 1019 -91 701 211 
Q 384 513 384 1019 
Q 384 1609 779 1909 
Q 1175 2209 1959 2209 
L 2766 2209 
L 2766 2266 
Q 2766 2663 2505 2880 
Q 2244 3097 1772 3097 
Q 1472 3097 1187 3025 
Q 903 2953 641 2809 
L 641 3341 
Q 956 3463 1253 3523 
Q 1550 3584 1831 3584 
Q 2591 3584 2966 3190 
Q 3341 2797 3341 1997 
z
" transform="scale(0.015625)"/>
       <path id="DejaVuSans-63" d="M 3122 3366 
L 3122 2828 
Q 2878 2963 2633 3030 
Q 2388 3097 2138 3097 
Q 1578 3097 1268 2742 
Q 959 2388 959 1747 
Q 959 1106 1268 751 
Q 1578 397 2138 397 
Q 2388 397 2633 464 
Q 2878 531 3122 666 
L 3122 134 
Q 2881 22 2623 -34 
Q 2366 -91 2075 -91 
Q 1284 -91 818 406 
Q 353 903 353 1747 
Q 353 2603 823 3093 
Q 1294 3584 2113 3584 
Q 2378 3584 2631 3529 
Q 2884 3475 3122 3366 
z
" transform="scale(0.015625)"/>
       <path id="DejaVuSans-68" d="M 3513 2113 
L 3513 0 
L 2938 0 
L 2938 2094 
Q 2938 2591 2744 2837 
Q 2550 3084 2163 3084 
Q 1697 3084 1428 2787 
Q 1159 2491 1159 1978 
L 1159 0 
L 581 0 
L 581 4863 
L 1159 4863 
L 1159 2956 
Q 1366 3272 1645 3428 
Q 1925 3584 2291 3584 
Q 2894 3584 3203 3211 
Q 3513 2838 3513 2113 
z
" transform="scale(0.015625)"/>
      </defs>
      <use xlink:href="#DejaVuSans-74"/>
      <use xlink:href="#DejaVuSans-65" x="39.208984"/>
      <use xlink:href="#DejaVuSans-61" x="100.732422"/>
      <use xlink:href="#DejaVuSans-63" x="162.011719"/>
      <use xlink:href="#DejaVuSans-68" x="216.992188"/>
     </g>
    </g>
   </g>
   <g id="line2d_29">
    <path d="M 117 88.887273 
L 124.327273 91.593116 
L 131.654545 94.298959 
L 138.981818 97.004802 
L 146.309091 99.710646 
L 153.636364 102.416489 
L 160.963636 105.122332 
L 168.290909 107.828175 
L 175.618182 110.534019 
L 182.945455 113.239862 
L 190.272727 115.945705 
L 197.6 118.651548 
L 204.927273 121.357392 
L 212.254545 124.063235 
L 219.581818 126.769078 
L 226.909091 129.474921 
L 234.236364 132.180764 
L 241.563636 134.886608 
L 248.890909 137.592451 
L 256.218182 140.298294 
L 263.545455 143.004137 
L 270.872727 145.709981 
L 278.2 148.415824 
L 285.527273 151.121667 
L 292.854545 153.82751 
L 300.181818 156.533354 
L 307.509091 159.239197 
L 314.836364 161.94504 
L 322.163636 164.650883 
L 329.490909 167.356727 
L 336.818182 170.06257 
L 344.145455 172.768413 
L 351.472727 175.474256 
L 358.8 178.180099 
L 366.127273 180.885943 
L 373.454545 183.591786 
L 380.781818 186.297629 
L 388.109091 189.003472 
L 395.436364 191.709316 
L 402.763636 194.415159 
L 410.090909 197.121002 
L 417.418182 199.826845 
L 424.745455 202.532689 
L 432.072727 205.238532 
L 439.4 207.944375 
L 446.727273 210.650218 
L 454.054545 213.356061 
L 461.381818 216.061905 
L 468.709091 218.767748 
L 476.036364 221.473591 
L 483.363636 224.179434 
L 490.690909 226.885278 
L 498.018182 229.591121 
L 505.345455 232.296964 
L 512.672727 235.002807 
L 520 237.708651 
L 527.327273 240.414494 
L 534.654545 243.120337 
L 541.981818 245.82618 
L 549.309091 248.532024 
L 556.636364 251.237867 
L 563.963636 253.94371 
L 571.290909 256.649553 
L 578.618182 259.355396 
L 585.945455 262.06124 
L 593.272727 264.767083 
L 600.6 267.472926 
L 607.927273 270.178769 
L 615.254545 272.884613 
L 622.581818 275.590456 
L 629.909091 278.296299 
L 637.236364 281.002142 
L 644.563636 283.707986 
L 651.890909 286.413829 
L 659.218182 289.119672 
L 666.545455 291.825515 
L 673.872727 294.531358 
L 681.2 297.237202 
L 688.527273 299.943045 
L 695.854545 302.648888 
L 703.181818 305.354731 
L 710.509091 308.060575 
L 717.836364 310.766418 
L 725.163636 313.472261 
L 732.490909 316.178104 
L 739.818182 318.883948 
L 747.145455 321.589791 
L 754.472727 324.295634 
L 761.8 327.001477 
L 769.127273 329.707321 
L 776.454545 332.413164 
L 783.781818 335.119007 
L 791.109091 337.82485 
L 798.436364 340.530693 
L 805.763636 343.236537 
L 813.090909 345.94238 
L 820.418182 348.648223 
L 827.745455 351.354066 
L 835.072727 354.05991 
L 842.4 356.765753 
" clip-path="url(#p36bad32ffc)" style="fill: none; stroke: #1f77b4; stroke-width: 1.5; stroke-linecap: square"/>
   </g>
   <g id="line2d_30">
    <path d="M 117 190.593623 
L 124.327273 193.135133 
L 131.654545 195.676644 
L 138.981818 198.218155 
L 146.309091 200.759665 
L 153.636364 203.301176 
L 160.963636 205.842687 
L 168.290909 208.384197 
L 175.618182 210.925708 
L 182.945455 213.467219 
L 190.272727 216.00873 
L 197.6 218.55024 
L 204.927273 221.091751 
L 212.254545 223.633262 
L 219.581818 226.174772 
L 226.909091 228.716283 
L 234.236364 231.257794 
L 241.563636 233.799304 
L 248.890909 236.340815 
L 256.218182 238.882326 
L 263.545455 241.423837 
L 270.872727 243.965347 
L 278.2 246.506858 
L 285.527273 249.048369 
L 292.854545 251.589879 
L 300.181818 254.13139 
L 307.509091 256.672901 
L 314.836364 259.214411 
L 322.163636 261.755922 
L 329.490909 264.297433 
L 336.818182 266.838944 
L 344.145455 269.380454 
L 351.472727 271.921965 
L 358.8 274.463476 
L 366.127273 277.004986 
L 373.454545 279.546497 
L 380.781818 282.088008 
L 388.109091 284.629518 
L 395.436364 287.171029 
L 402.763636 289.71254 
L 410.090909 292.254051 
L 417.418182 294.795561 
L 424.745455 297.337072 
L 432.072727 299.878583 
L 439.4 302.420093 
L 446.727273 304.961604 
L 454.054545 307.503115 
L 461.381818 310.044626 
L 468.709091 312.586136 
L 476.036364 315.127647 
L 483.363636 317.669158 
L 490.690909 320.210668 
L 498.018182 322.752179 
L 505.345455 325.29369 
L 512.672727 327.8352 
L 520 330.376711 
L 527.327273 332.918222 
L 534.654545 335.459733 
L 541.981818 338.001243 
L 549.309091 340.542754 
L 556.636364 343.084265 
L 563.963636 345.625775 
L 571.290909 348.167286 
L 578.618182 350.708797 
L 585.945455 353.250307 
L 593.272727 355.791818 
L 600.6 358.333329 
L 607.927273 360.87484 
L 615.254545 363.41635 
L 622.581818 365.957861 
L 629.909091 368.499372 
L 637.236364 371.040882 
L 644.563636 373.582393 
L 651.890909 376.123904 
L 659.218182 378.665414 
L 666.545455 381.206925 
L 673.872727 383.748436 
L 681.2 386.289947 
L 688.527273 388.831457 
L 695.854545 391.372968 
L 703.181818 393.914479 
L 710.509091 396.455989 
L 717.836364 398.9975 
L 725.163636 401.539011 
L 732.490909 404.080521 
L 739.818182 406.622032 
L 747.145455 409.163543 
L 754.472727 411.705054 
L 761.8 414.246564 
L 769.127273 416.788075 
L 776.454545 419.329586 
L 783.781818 421.871096 
L 791.109091 424.412607 
L 798.436364 426.954118 
L 805.763636 429.495628 
L 813.090909 432.037139 
L 820.418182 434.57865 
L 827.745455 437.120161 
L 835.072727 439.661671 
L 842.4 442.203182 
" clip-path="url(#p36bad32ffc)" style="fill: none; stroke: #ff7f0e; stroke-width: 1.5; stroke-linecap: square"/>
   </g>
   <g id="line2d_31">
    <path d="M 117 252.461923 
L 124.327273 254.712142 
L 131.654545 256.962361 
L 138.981818 259.21258 
L 146.309091 261.462798 
L 153.636364 263.713017 
L 160.963636 265.963236 
L 168.290909 268.213455 
L 175.618182 270.463673 
L 182.945455 272.713892 
L 190.272727 274.964111 
L 197.6 277.21433 
L 204.927273 279.464548 
L 212.254545 281.714767 
L 219.581818 283.964986 
L 226.909091 286.215205 
L 234.236364 288.465423 
L 241.563636 290.715642 
L 248.890909 292.965861 
L 256.218182 295.21608 
L 263.545455 297.466298 
L 270.872727 299.716517 
L 278.2 301.966736 
L 285.527273 304.216955 
L 292.854545 306.467173 
L 300.181818 308.717392 
L 307.509091 310.967611 
L 314.836364 313.21783 
L 322.163636 315.468048 
L 329.490909 317.718267 
L 336.818182 319.968486 
L 344.145455 322.218705 
L 351.472727 324.468923 
L 358.8 326.719142 
L 366.127273 328.969361 
L 373.454545 331.21958 
L 380.781818 333.469798 
L 388.109091 335.720017 
L 395.436364 337.970236 
L 402.763636 340.220455 
L 410.090909 342.470673 
L 417.418182 344.720892 
L 424.745455 346.971111 
L 432.072727 349.22133 
L 439.4 351.471548 
L 446.727273 353.721767 
L 454.054545 355.971986 
L 461.381818 358.222205 
L 468.709091 360.472423 
L 476.036364 362.722642 
L 483.363636 364.972861 
L 490.690909 367.22308 
L 498.018182 369.473298 
L 505.345455 371.723517 
L 512.672727 373.973736 
L 520 376.223955 
L 527.327273 378.474173 
L 534.654545 380.724392 
L 541.981818 382.974611 
L 549.309091 385.22483 
L 556.636364 387.475048 
L 563.963636 389.725267 
L 571.290909 391.975486 
L 578.618182 394.225705 
L 585.945455 396.475923 
L 593.272727 398.726142 
L 600.6 400.976361 
L 607.927273 403.22658 
L 615.254545 405.476798 
L 622.581818 407.727017 
L 629.909091 409.977236 
L 637.236364 412.227455 
L 644.563636 414.477673 
L 651.890909 416.727892 
L 659.218182 418.978111 
L 666.545455 421.22833 
L 673.872727 423.478548 
L 681.2 425.728767 
L 688.527273 427.978986 
L 695.854545 430.229205 
L 703.181818 432.479423 
L 710.509091 434.729642 
L 717.836364 436.979861 
L 725.163636 439.23008 
L 732.490909 441.480298 
L 739.818182 443.730517 
L 747.145455 445.980736 
L 754.472727 448.230955 
L 761.8 450.481173 
L 769.127273 452.731392 
L 776.454545 454.981611 
L 783.781818 457.23183 
L 791.109091 459.482048 
L 798.436364 461.732267 
L 805.763636 463.982486 
L 813.090909 466.232705 
L 820.418182 468.482923 
L 827.745455 470.733142 
L 835.072727 472.983361 
L 842.4 475.233579 
" clip-path="url(#p36bad32ffc)" style="fill: none; stroke: #2ca02c; stroke-width: 1.5; stroke-linecap: square"/>
   </g>
   <g id="line2d_32">
    <path d="M 117 293.263995 
L 124.327273 295.192972 
L 131.654545 297.121949 
L 138.981818 299.050926 
L 146.309091 300.979903 
L 153.636364 302.908881 
L 160.963636 304.837858 
L 168.290909 306.766835 
L 175.618182 308.695812 
L 182.945455 310.624789 
L 190.272727 312.553766 
L 197.6 314.482743 
L 204.927273 316.41172 
L 212.254545 318.340697 
L 219.581818 320.269674 
L 226.909091 322.198651 
L 234.236364 324.127629 
L 241.563636 326.056606 
L 248.890909 327.985583 
L 256.218182 329.91456 
L 263.545455 331.843537 
L 270.872727 333.772514 
L 278.2 335.701491 
L 285.527273 337.630468 
L 292.854545 339.559445 
L 300.181818 341.488422 
L 307.509091 343.417399 
L 314.836364 345.346377 
L 322.163636 347.275354 
L 329.490909 349.204331 
L 336.818182 351.133308 
L 344.145455 353.062285 
L 351.472727 354.991262 
L 358.8 356.920239 
L 366.127273 358.849216 
L 373.454545 360.778193 
L 380.781818 362.70717 
L 388.109091 364.636147 
L 395.436364 366.565125 
L 402.763636 368.494102 
L 410.090909 370.423079 
L 417.418182 372.352056 
L 424.745455 374.281033 
L 432.072727 376.21001 
L 439.4 378.138987 
L 446.727273 380.067964 
L 454.054545 381.996941 
L 461.381818 383.925918 
L 468.709091 385.854896 
L 476.036364 387.783873 
L 483.363636 389.71285 
L 490.690909 391.641827 
L 498.018182 393.570804 
L 505.345455 395.499781 
L 512.672727 397.428758 
L 520 399.357735 
L 527.327273 401.286712 
L 534.654545 403.215689 
L 541.981818 405.144666 
L 549.309091 407.073644 
L 556.636364 409.002621 
L 563.963636 410.931598 
L 571.290909 412.860575 
L 578.618182 414.789552 
L 585.945455 416.718529 
L 593.272727 418.647506 
L 600.6 420.576483 
L 607.927273 422.50546 
L 615.254545 424.434437 
L 622.581818 426.363414 
L 629.909091 428.292392 
L 637.236364 430.221369 
L 644.563636 432.150346 
L 651.890909 434.079323 
L 659.218182 436.0083 
L 666.545455 437.937277 
L 673.872727 439.866254 
L 681.2 441.795231 
L 688.527273 443.724208 
L 695.854545 445.653185 
L 703.181818 447.582163 
L 710.509091 449.51114 
L 717.836364 451.440117 
L 725.163636 453.369094 
L 732.490909 455.298071 
L 739.818182 457.227048 
L 747.145455 459.156025 
L 754.472727 461.085002 
L 761.8 463.013979 
L 769.127273 464.942956 
L 776.454545 466.871933 
L 783.781818 468.800911 
L 791.109091 470.729888 
L 798.436364 472.658865 
L 805.763636 474.587842 
L 813.090909 476.516819 
L 820.418182 478.445796 
L 827.745455 480.374773 
L 835.072727 482.30375 
L 842.4 484.232727 
" clip-path="url(#p36bad32ffc)" style="fill: none; stroke: #d62728; stroke-width: 1.5; stroke-linecap: square"/>
   </g>
   <g id="line2d_33">
    <path d="M 117 322.310709 
L 124.327273 323.930604 
L 131.654545 325.550499 
L 138.981818 327.170394 
L 146.309091 328.790289 
L 153.636364 330.410183 
L 160.963636 332.030078 
L 168.290909 333.649973 
L 175.618182 335.269868 
L 182.945455 336.889763 
L 190.272727 338.509658 
L 197.6 340.129553 
L 204.927273 341.749448 
L 212.254545 343.369343 
L 219.581818 344.989238 
L 226.909091 346.609133 
L 234.236364 348.229027 
L 241.563636 349.848922 
L 248.890909 351.468817 
L 256.218182 353.088712 
L 263.545455 354.708607 
L 270.872727 356.328502 
L 278.2 357.948397 
L 285.527273 359.568292 
L 292.854545 361.188187 
L 300.181818 362.808082 
L 307.509091 364.427977 
L 314.836364 366.047871 
L 322.163636 367.667766 
L 329.490909 369.287661 
L 336.818182 370.907556 
L 344.145455 372.527451 
L 351.472727 374.147346 
L 358.8 375.767241 
L 366.127273 377.387136 
L 373.454545 379.007031 
L 380.781818 380.626926 
L 388.109091 382.246821 
L 395.436364 383.866715 
L 402.763636 385.48661 
L 410.090909 387.106505 
L 417.418182 388.7264 
L 424.745455 390.346295 
L 432.072727 391.96619 
L 439.4 393.586085 
L 446.727273 395.20598 
L 454.054545 396.825875 
L 461.381818 398.44577 
L 468.709091 400.065665 
L 476.036364 401.685559 
L 483.363636 403.305454 
L 490.690909 404.925349 
L 498.018182 406.545244 
L 505.345455 408.165139 
L 512.672727 409.785034 
L 520 411.404929 
L 527.327273 413.024824 
L 534.654545 414.644719 
L 541.981818 416.264614 
L 549.309091 417.884509 
L 556.636364 419.504403 
L 563.963636 421.124298 
L 571.290909 422.744193 
L 578.618182 424.364088 
L 585.945455 425.983983 
L 593.272727 427.603878 
L 600.6 429.223773 
L 607.927273 430.843668 
L 615.254545 432.463563 
L 622.581818 434.083458 
L 629.909091 435.703353 
L 637.236364 437.323248 
L 644.563636 438.943142 
L 651.890909 440.563037 
L 659.218182 442.182932 
L 666.545455 443.802827 
L 673.872727 445.422722 
L 681.2 447.042617 
L 688.527273 448.662512 
L 695.854545 450.282407 
L 703.181818 451.902302 
L 710.509091 453.522197 
L 717.836364 455.142092 
L 725.163636 456.761986 
L 732.490909 458.381881 
L 739.818182 460.001776 
L 747.145455 461.621671 
L 754.472727 463.241566 
L 761.8 464.861461 
L 769.127273 466.481356 
L 776.454545 468.101251 
L 783.781818 469.721146 
L 791.109091 471.341041 
L 798.436364 472.960936 
L 805.763636 474.58083 
L 813.090909 476.200725 
L 820.418182 477.82062 
L 827.745455 479.440515 
L 835.072727 481.06041 
L 842.4 482.680305 
" clip-path="url(#p36bad32ffc)" style="fill: none; stroke: #9467bd; stroke-width: 1.5; stroke-linecap: square"/>
   </g>
   <g id="line2d_34">
    <path d="M 117 344.319741 
L 124.327273 345.659076 
L 131.654545 346.998411 
L 138.981818 348.337746 
L 146.309091 349.677082 
L 153.636364 351.016417 
L 160.963636 352.355752 
L 168.290909 353.695087 
L 175.618182 355.034422 
L 182.945455 356.373758 
L 190.272727 357.713093 
L 197.6 359.052428 
L 204.927273 360.391763 
L 212.254545 361.731098 
L 219.581818 363.070434 
L 226.909091 364.409769 
L 234.236364 365.749104 
L 241.563636 367.088439 
L 248.890909 368.427774 
L 256.218182 369.76711 
L 263.545455 371.106445 
L 270.872727 372.44578 
L 278.2 373.785115 
L 285.527273 375.124451 
L 292.854545 376.463786 
L 300.181818 377.803121 
L 307.509091 379.142456 
L 314.836364 380.481791 
L 322.163636 381.821127 
L 329.490909 383.160462 
L 336.818182 384.499797 
L 344.145455 385.839132 
L 351.472727 387.178467 
L 358.8 388.517803 
L 366.127273 389.857138 
L 373.454545 391.196473 
L 380.781818 392.535808 
L 388.109091 393.875143 
L 395.436364 395.214479 
L 402.763636 396.553814 
L 410.090909 397.893149 
L 417.418182 399.232484 
L 424.745455 400.571819 
L 432.072727 401.911155 
L 439.4 403.25049 
L 446.727273 404.589825 
L 454.054545 405.92916 
L 461.381818 407.268495 
L 468.709091 408.607831 
L 476.036364 409.947166 
L 483.363636 411.286501 
L 490.690909 412.625836 
L 498.018182 413.965171 
L 505.345455 415.304507 
L 512.672727 416.643842 
L 520 417.983177 
L 527.327273 419.322512 
L 534.654545 420.661847 
L 541.981818 422.001183 
L 549.309091 423.340518 
L 556.636364 424.679853 
L 563.963636 426.019188 
L 571.290909 427.358523 
L 578.618182 428.697859 
L 585.945455 430.037194 
L 593.272727 431.376529 
L 600.6 432.715864 
L 607.927273 434.055199 
L 615.254545 435.394535 
L 622.581818 436.73387 
L 629.909091 438.073205 
L 637.236364 439.41254 
L 644.563636 440.751875 
L 651.890909 442.091211 
L 659.218182 443.430546 
L 666.545455 444.769881 
L 673.872727 446.109216 
L 681.2 447.448552 
L 688.527273 448.787887 
L 695.854545 450.127222 
L 703.181818 451.466557 
L 710.509091 452.805892 
L 717.836364 454.145228 
L 725.163636 455.484563 
L 732.490909 456.823898 
L 739.818182 458.163233 
L 747.145455 459.502568 
L 754.472727 460.841904 
L 761.8 462.181239 
L 769.127273 463.520574 
L 776.454545 464.859909 
L 783.781818 466.199244 
L 791.109091 467.53858 
L 798.436364 468.877915 
L 805.763636 470.21725 
L 813.090909 471.556585 
L 820.418182 472.89592 
L 827.745455 474.235256 
L 835.072727 475.574591 
L 842.4 476.913926 
" clip-path="url(#p36bad32ffc)" style="fill: none; stroke: #8c564b; stroke-width: 1.5; stroke-linecap: square"/>
   </g>
   <g id="line2d_35">
    <path d="M 117 361.763793 
L 124.327273 362.855637 
L 131.654545 363.947482 
L 138.981818 365.039327 
L 146.309091 366.131172 
L 153.636364 367.223016 
L 160.963636 368.314861 
L 168.290909 369.406706 
L 175.618182 370.49855 
L 182.945455 371.590395 
L 190.272727 372.68224 
L 197.6 373.774085 
L 204.927273 374.865929 
L 212.254545 375.957774 
L 219.581818 377.049619 
L 226.909091 378.141463 
L 234.236364 379.233308 
L 241.563636 380.325153 
L 248.890909 381.416998 
L 256.218182 382.508842 
L 263.545455 383.600687 
L 270.872727 384.692532 
L 278.2 385.784376 
L 285.527273 386.876221 
L 292.854545 387.968066 
L 300.181818 389.059911 
L 307.509091 390.151755 
L 314.836364 391.2436 
L 322.163636 392.335445 
L 329.490909 393.427289 
L 336.818182 394.519134 
L 344.145455 395.610979 
L 351.472727 396.702824 
L 358.8 397.794668 
L 366.127273 398.886513 
L 373.454545 399.978358 
L 380.781818 401.070202 
L 388.109091 402.162047 
L 395.436364 403.253892 
L 402.763636 404.345737 
L 410.090909 405.437581 
L 417.418182 406.529426 
L 424.745455 407.621271 
L 432.072727 408.713115 
L 439.4 409.80496 
L 446.727273 410.896805 
L 454.054545 411.98865 
L 461.381818 413.080494 
L 468.709091 414.172339 
L 476.036364 415.264184 
L 483.363636 416.356028 
L 490.690909 417.447873 
L 498.018182 418.539718 
L 505.345455 419.631563 
L 512.672727 420.723407 
L 520 421.815252 
L 527.327273 422.907097 
L 534.654545 423.998941 
L 541.981818 425.090786 
L 549.309091 426.182631 
L 556.636364 427.274476 
L 563.963636 428.36632 
L 571.290909 429.458165 
L 578.618182 430.55001 
L 585.945455 431.641854 
L 593.272727 432.733699 
L 600.6 433.825544 
L 607.927273 434.917389 
L 615.254545 436.009233 
L 622.581818 437.101078 
L 629.909091 438.192923 
L 637.236364 439.284767 
L 644.563636 440.376612 
L 651.890909 441.468457 
L 659.218182 442.560302 
L 666.545455 443.652146 
L 673.872727 444.743991 
L 681.2 445.835836 
L 688.527273 446.92768 
L 695.854545 448.019525 
L 703.181818 449.11137 
L 710.509091 450.203215 
L 717.836364 451.295059 
L 725.163636 452.386904 
L 732.490909 453.478749 
L 739.818182 454.570593 
L 747.145455 455.662438 
L 754.472727 456.754283 
L 761.8 457.846128 
L 769.127273 458.937972 
L 776.454545 460.029817 
L 783.781818 461.121662 
L 791.109091 462.213506 
L 798.436364 463.305351 
L 805.763636 464.397196 
L 813.090909 465.489041 
L 820.418182 466.580885 
L 827.745455 467.67273 
L 835.072727 468.764575 
L 842.4 469.856419 
" clip-path="url(#p36bad32ffc)" style="fill: none; stroke: #e377c2; stroke-width: 1.5; stroke-linecap: square"/>
   </g>
   <g id="line2d_36">
    <path d="M 117 376.005606 
L 124.327273 376.882379 
L 131.654545 377.759151 
L 138.981818 378.635924 
L 146.309091 379.512697 
L 153.636364 380.389469 
L 160.963636 381.266242 
L 168.290909 382.143015 
L 175.618182 383.019787 
L 182.945455 383.89656 
L 190.272727 384.773333 
L 197.6 385.650105 
L 204.927273 386.526878 
L 212.254545 387.403651 
L 219.581818 388.280423 
L 226.909091 389.157196 
L 234.236364 390.033969 
L 241.563636 390.910741 
L 248.890909 391.787514 
L 256.218182 392.664287 
L 263.545455 393.541059 
L 270.872727 394.417832 
L 278.2 395.294604 
L 285.527273 396.171377 
L 292.854545 397.04815 
L 300.181818 397.924922 
L 307.509091 398.801695 
L 314.836364 399.678468 
L 322.163636 400.55524 
L 329.490909 401.432013 
L 336.818182 402.308786 
L 344.145455 403.185558 
L 351.472727 404.062331 
L 358.8 404.939104 
L 366.127273 405.815876 
L 373.454545 406.692649 
L 380.781818 407.569422 
L 388.109091 408.446194 
L 395.436364 409.322967 
L 402.763636 410.19974 
L 410.090909 411.076512 
L 417.418182 411.953285 
L 424.745455 412.830058 
L 432.072727 413.70683 
L 439.4 414.583603 
L 446.727273 415.460376 
L 454.054545 416.337148 
L 461.381818 417.213921 
L 468.709091 418.090694 
L 476.036364 418.967466 
L 483.363636 419.844239 
L 490.690909 420.721011 
L 498.018182 421.597784 
L 505.345455 422.474557 
L 512.672727 423.351329 
L 520 424.228102 
L 527.327273 425.104875 
L 534.654545 425.981647 
L 541.981818 426.85842 
L 549.309091 427.735193 
L 556.636364 428.611965 
L 563.963636 429.488738 
L 571.290909 430.365511 
L 578.618182 431.242283 
L 585.945455 432.119056 
L 593.272727 432.995829 
L 600.6 433.872601 
L 607.927273 434.749374 
L 615.254545 435.626147 
L 622.581818 436.502919 
L 629.909091 437.379692 
L 637.236364 438.256465 
L 644.563636 439.133237 
L 651.890909 440.01001 
L 659.218182 440.886783 
L 666.545455 441.763555 
L 673.872727 442.640328 
L 681.2 443.517101 
L 688.527273 444.393873 
L 695.854545 445.270646 
L 703.181818 446.147418 
L 710.509091 447.024191 
L 717.836364 447.900964 
L 725.163636 448.777736 
L 732.490909 449.654509 
L 739.818182 450.531282 
L 747.145455 451.408054 
L 754.472727 452.284827 
L 761.8 453.1616 
L 769.127273 454.038372 
L 776.454545 454.915145 
L 783.781818 455.791918 
L 791.109091 456.66869 
L 798.436364 457.545463 
L 805.763636 458.422236 
L 813.090909 459.299008 
L 820.418182 460.175781 
L 827.745455 461.052554 
L 835.072727 461.929326 
L 842.4 462.806099 
" clip-path="url(#p36bad32ffc)" style="fill: none; stroke: #7f7f7f; stroke-width: 1.5; stroke-linecap: square"/>
   </g>
   <g id="line2d_37">
    <path d="M 117 387.848464 
L 124.327273 388.539847 
L 131.654545 389.231231 
L 138.981818 389.922615 
L 146.309091 390.613999 
L 153.636364 391.305383 
L 160.963636 391.996767 
L 168.290909 392.68815 
L 175.618182 393.379534 
L 182.945455 394.070918 
L 190.272727 394.762302 
L 197.6 395.453686 
L 204.927273 396.14507 
L 212.254545 396.836453 
L 219.581818 397.527837 
L 226.909091 398.219221 
L 234.236364 398.910605 
L 241.563636 399.601989 
L 248.890909 400.293373 
L 256.218182 400.984757 
L 263.545455 401.67614 
L 270.872727 402.367524 
L 278.2 403.058908 
L 285.527273 403.750292 
L 292.854545 404.441676 
L 300.181818 405.13306 
L 307.509091 405.824443 
L 314.836364 406.515827 
L 322.163636 407.207211 
L 329.490909 407.898595 
L 336.818182 408.589979 
L 344.145455 409.281363 
L 351.472727 409.972747 
L 358.8 410.66413 
L 366.127273 411.355514 
L 373.454545 412.046898 
L 380.781818 412.738282 
L 388.109091 413.429666 
L 395.436364 414.12105 
L 402.763636 414.812433 
L 410.090909 415.503817 
L 417.418182 416.195201 
L 424.745455 416.886585 
L 432.072727 417.577969 
L 439.4 418.269353 
L 446.727273 418.960737 
L 454.054545 419.65212 
L 461.381818 420.343504 
L 468.709091 421.034888 
L 476.036364 421.726272 
L 483.363636 422.417656 
L 490.690909 423.10904 
L 498.018182 423.800423 
L 505.345455 424.491807 
L 512.672727 425.183191 
L 520 425.874575 
L 527.327273 426.565959 
L 534.654545 427.257343 
L 541.981818 427.948727 
L 549.309091 428.64011 
L 556.636364 429.331494 
L 563.963636 430.022878 
L 571.290909 430.714262 
L 578.618182 431.405646 
L 585.945455 432.09703 
L 593.272727 432.788413 
L 600.6 433.479797 
L 607.927273 434.171181 
L 615.254545 434.862565 
L 622.581818 435.553949 
L 629.909091 436.245333 
L 637.236364 436.936717 
L 644.563636 437.6281 
L 651.890909 438.319484 
L 659.218182 439.010868 
L 666.545455 439.702252 
L 673.872727 440.393636 
L 681.2 441.08502 
L 688.527273 441.776403 
L 695.854545 442.467787 
L 703.181818 443.159171 
L 710.509091 443.850555 
L 717.836364 444.541939 
L 725.163636 445.233323 
L 732.490909 445.924707 
L 739.818182 446.61609 
L 747.145455 447.307474 
L 754.472727 447.998858 
L 761.8 448.690242 
L 769.127273 449.381626 
L 776.454545 450.07301 
L 783.781818 450.764393 
L 791.109091 451.455777 
L 798.436364 452.147161 
L 805.763636 452.838545 
L 813.090909 453.529929 
L 820.418182 454.221313 
L 827.745455 454.912696 
L 835.072727 455.60408 
L 842.4 456.295464 
" clip-path="url(#p36bad32ffc)" style="fill: none; stroke: #bcbd22; stroke-width: 1.5; stroke-linecap: square"/>
   </g>
   <g id="line2d_38">
    <path d="M 117 397.804798 
L 124.327273 398.337094 
L 131.654545 398.869389 
L 138.981818 399.401685 
L 146.309091 399.93398 
L 153.636364 400.466276 
L 160.963636 400.998571 
L 168.290909 401.530867 
L 175.618182 402.063162 
L 182.945455 402.595458 
L 190.272727 403.127753 
L 197.6 403.660049 
L 204.927273 404.192345 
L 212.254545 404.72464 
L 219.581818 405.256936 
L 226.909091 405.789231 
L 234.236364 406.321527 
L 241.563636 406.853822 
L 248.890909 407.386118 
L 256.218182 407.918413 
L 263.545455 408.450709 
L 270.872727 408.983004 
L 278.2 409.5153 
L 285.527273 410.047596 
L 292.854545 410.579891 
L 300.181818 411.112187 
L 307.509091 411.644482 
L 314.836364 412.176778 
L 322.163636 412.709073 
L 329.490909 413.241369 
L 336.818182 413.773664 
L 344.145455 414.30596 
L 351.472727 414.838255 
L 358.8 415.370551 
L 366.127273 415.902847 
L 373.454545 416.435142 
L 380.781818 416.967438 
L 388.109091 417.499733 
L 395.436364 418.032029 
L 402.763636 418.564324 
L 410.090909 419.09662 
L 417.418182 419.628915 
L 424.745455 420.161211 
L 432.072727 420.693506 
L 439.4 421.225802 
L 446.727273 421.758097 
L 454.054545 422.290393 
L 461.381818 422.822689 
L 468.709091 423.354984 
L 476.036364 423.88728 
L 483.363636 424.419575 
L 490.690909 424.951871 
L 498.018182 425.484166 
L 505.345455 426.016462 
L 512.672727 426.548757 
L 520 427.081053 
L 527.327273 427.613348 
L 534.654545 428.145644 
L 541.981818 428.67794 
L 549.309091 429.210235 
L 556.636364 429.742531 
L 563.963636 430.274826 
L 571.290909 430.807122 
L 578.618182 431.339417 
L 585.945455 431.871713 
L 593.272727 432.404008 
L 600.6 432.936304 
L 607.927273 433.468599 
L 615.254545 434.000895 
L 622.581818 434.533191 
L 629.909091 435.065486 
L 637.236364 435.597782 
L 644.563636 436.130077 
L 651.890909 436.662373 
L 659.218182 437.194668 
L 666.545455 437.726964 
L 673.872727 438.259259 
L 681.2 438.791555 
L 688.527273 439.32385 
L 695.854545 439.856146 
L 703.181818 440.388442 
L 710.509091 440.920737 
L 717.836364 441.453033 
L 725.163636 441.985328 
L 732.490909 442.517624 
L 739.818182 443.049919 
L 747.145455 443.582215 
L 754.472727 444.11451 
L 761.8 444.646806 
L 769.127273 445.179101 
L 776.454545 445.711397 
L 783.781818 446.243692 
L 791.109091 446.775988 
L 798.436364 447.308284 
L 805.763636 447.840579 
L 813.090909 448.372875 
L 820.418182 448.90517 
L 827.745455 449.437466 
L 835.072727 449.969761 
L 842.4 450.502057 
" clip-path="url(#p36bad32ffc)" style="fill: none; stroke: #17becf; stroke-width: 1.5; stroke-linecap: square"/>
   </g>
   <g id="line2d_39">
    <path d="M 117 406.228618 
L 124.327273 406.624735 
L 131.654545 407.020851 
L 138.981818 407.416968 
L 146.309091 407.813085 
L 153.636364 408.209201 
L 160.963636 408.605318 
L 168.290909 409.001435 
L 175.618182 409.397551 
L 182.945455 409.793668 
L 190.272727 410.189785 
L 197.6 410.585901 
L 204.927273 410.982018 
L 212.254545 411.378135 
L 219.581818 411.774251 
L 226.909091 412.170368 
L 234.236364 412.566485 
L 241.563636 412.962601 
L 248.890909 413.358718 
L 256.218182 413.754835 
L 263.545455 414.150951 
L 270.872727 414.547068 
L 278.2 414.943185 
L 285.527273 415.339301 
L 292.854545 415.735418 
L 300.181818 416.131535 
L 307.509091 416.527651 
L 314.836364 416.923768 
L 322.163636 417.319885 
L 329.490909 417.716001 
L 336.818182 418.112118 
L 344.145455 418.508235 
L 351.472727 418.904351 
L 358.8 419.300468 
L 366.127273 419.696585 
L 373.454545 420.092701 
L 380.781818 420.488818 
L 388.109091 420.884935 
L 395.436364 421.281051 
L 402.763636 421.677168 
L 410.090909 422.073285 
L 417.418182 422.469401 
L 424.745455 422.865518 
L 432.072727 423.261635 
L 439.4 423.657751 
L 446.727273 424.053868 
L 454.054545 424.449985 
L 461.381818 424.846101 
L 468.709091 425.242218 
L 476.036364 425.638335 
L 483.363636 426.034451 
L 490.690909 426.430568 
L 498.018182 426.826685 
L 505.345455 427.222801 
L 512.672727 427.618918 
L 520 428.015035 
L 527.327273 428.411151 
L 534.654545 428.807268 
L 541.981818 429.203385 
L 549.309091 429.599501 
L 556.636364 429.995618 
L 563.963636 430.391735 
L 571.290909 430.787851 
L 578.618182 431.183968 
L 585.945455 431.580085 
L 593.272727 431.976201 
L 600.6 432.372318 
L 607.927273 432.768435 
L 615.254545 433.164551 
L 622.581818 433.560668 
L 629.909091 433.956785 
L 637.236364 434.352901 
L 644.563636 434.749018 
L 651.890909 435.145135 
L 659.218182 435.541251 
L 666.545455 435.937368 
L 673.872727 436.333485 
L 681.2 436.729601 
L 688.527273 437.125718 
L 695.854545 437.521835 
L 703.181818 437.917951 
L 710.509091 438.314068 
L 717.836364 438.710185 
L 725.163636 439.106301 
L 732.490909 439.502418 
L 739.818182 439.898535 
L 747.145455 440.294651 
L 754.472727 440.690768 
L 761.8 441.086885 
L 769.127273 441.483001 
L 776.454545 441.879118 
L 783.781818 442.275235 
L 791.109091 442.671351 
L 798.436364 443.067468 
L 805.763636 443.463585 
L 813.090909 443.859701 
L 820.418182 444.255818 
L 827.745455 444.651935 
L 835.072727 445.048051 
L 842.4 445.444168 
" clip-path="url(#p36bad32ffc)" style="fill: none; stroke: #1f77b4; stroke-width: 1.5; stroke-linecap: square"/>
   </g>
   <g id="patch_3">
    <path d="M 117 504 
L 117 69.12 
" style="fill: none; stroke: #000000; stroke-width: 0.8; stroke-linejoin: miter; stroke-linecap: square"/>
   </g>
   <g id="patch_4">
    <path d="M 842.4 504 
L 842.4 69.12 
" style="fill: none; stroke: #000000; stroke-width: 0.8; stroke-linejoin: miter; stroke-linecap: square"/>
   </g>
   <g id="patch_5">
    <path d="M 117 504 
L 842.4 504 
" style="fill: none; stroke: #000000; stroke-width: 0.8; stroke-linejoin: miter; stroke-linecap: square"/>
   </g>
   <g id="patch_6">
    <path d="M 117 69.12 
L 842.4 69.12 
" style="fill: none; stroke: #000000; stroke-width: 0.8; stroke-linejoin: miter; stroke-linecap: square"/>
   </g>
   <g id="legend_1">
    <g id="patch_7">
     <path d="M 653.924375 293.394375 
L 833.3 293.394375 
Q 835.9 293.394375 835.9 290.794375 
L 835.9 78.22 
Q 835.9 75.62 833.3 75.62 
L 653.924375 75.62 
Q 651.324375 75.62 651.324375 78.22 
L 651.324375 290.794375 
Q 651.324375 293.394375 653.924375 293.394375 
z
" style="fill: #ffffff; opacity: 0.8; stroke: #cccccc; stroke-linejoin: miter"/>
    </g>
    <g id="line2d_40">
     <path d="M 656.524375 86.147969 
L 669.524375 86.147969 
L 682.524375 86.147969 
" style="fill: none; stroke: #1f77b4; stroke-width: 1.5; stroke-linecap: square"/>
    </g>
    <g id="text_17">
     <!-- weinghts_hisotiry: 0 -->
     <g transform="translate(692.924375 90.697969)scale(0.13 -0.13)">
      <defs>
       <path id="DejaVuSans-77" d="M 269 3500 
L 844 3500 
L 1563 769 
L 2278 3500 
L 2956 3500 
L 3675 769 
L 4391 3500 
L 4966 3500 
L 4050 0 
L 3372 0 
L 2619 2869 
L 1863 0 
L 1184 0 
L 269 3500 
z
" transform="scale(0.015625)"/>
       <path id="DejaVuSans-69" d="M 603 3500 
L 1178 3500 
L 1178 0 
L 603 0 
L 603 3500 
z
M 603 4863 
L 1178 4863 
L 1178 4134 
L 603 4134 
L 603 4863 
z
" transform="scale(0.015625)"/>
       <path id="DejaVuSans-6e" d="M 3513 2113 
L 3513 0 
L 2938 0 
L 2938 2094 
Q 2938 2591 2744 2837 
Q 2550 3084 2163 3084 
Q 1697 3084 1428 2787 
Q 1159 2491 1159 1978 
L 1159 0 
L 581 0 
L 581 3500 
L 1159 3500 
L 1159 2956 
Q 1366 3272 1645 3428 
Q 1925 3584 2291 3584 
Q 2894 3584 3203 3211 
Q 3513 2838 3513 2113 
z
" transform="scale(0.015625)"/>
       <path id="DejaVuSans-67" d="M 2906 1791 
Q 2906 2416 2648 2759 
Q 2391 3103 1925 3103 
Q 1463 3103 1205 2759 
Q 947 2416 947 1791 
Q 947 1169 1205 825 
Q 1463 481 1925 481 
Q 2391 481 2648 825 
Q 2906 1169 2906 1791 
z
M 3481 434 
Q 3481 -459 3084 -895 
Q 2688 -1331 1869 -1331 
Q 1566 -1331 1297 -1286 
Q 1028 -1241 775 -1147 
L 775 -588 
Q 1028 -725 1275 -790 
Q 1522 -856 1778 -856 
Q 2344 -856 2625 -561 
Q 2906 -266 2906 331 
L 2906 616 
Q 2728 306 2450 153 
Q 2172 0 1784 0 
Q 1141 0 747 490 
Q 353 981 353 1791 
Q 353 2603 747 3093 
Q 1141 3584 1784 3584 
Q 2172 3584 2450 3431 
Q 2728 3278 2906 2969 
L 2906 3500 
L 3481 3500 
L 3481 434 
z
" transform="scale(0.015625)"/>
       <path id="DejaVuSans-73" d="M 2834 3397 
L 2834 2853 
Q 2591 2978 2328 3040 
Q 2066 3103 1784 3103 
Q 1356 3103 1142 2972 
Q 928 2841 928 2578 
Q 928 2378 1081 2264 
Q 1234 2150 1697 2047 
L 1894 2003 
Q 2506 1872 2764 1633 
Q 3022 1394 3022 966 
Q 3022 478 2636 193 
Q 2250 -91 1575 -91 
Q 1294 -91 989 -36 
Q 684 19 347 128 
L 347 722 
Q 666 556 975 473 
Q 1284 391 1588 391 
Q 1994 391 2212 530 
Q 2431 669 2431 922 
Q 2431 1156 2273 1281 
Q 2116 1406 1581 1522 
L 1381 1569 
Q 847 1681 609 1914 
Q 372 2147 372 2553 
Q 372 3047 722 3315 
Q 1072 3584 1716 3584 
Q 2034 3584 2315 3537 
Q 2597 3491 2834 3397 
z
" transform="scale(0.015625)"/>
       <path id="DejaVuSans-5f" d="M 3263 -1063 
L 3263 -1509 
L -63 -1509 
L -63 -1063 
L 3263 -1063 
z
" transform="scale(0.015625)"/>
       <path id="DejaVuSans-6f" d="M 1959 3097 
Q 1497 3097 1228 2736 
Q 959 2375 959 1747 
Q 959 1119 1226 758 
Q 1494 397 1959 397 
Q 2419 397 2687 759 
Q 2956 1122 2956 1747 
Q 2956 2369 2687 2733 
Q 2419 3097 1959 3097 
z
M 1959 3584 
Q 2709 3584 3137 3096 
Q 3566 2609 3566 1747 
Q 3566 888 3137 398 
Q 2709 -91 1959 -91 
Q 1206 -91 779 398 
Q 353 888 353 1747 
Q 353 2609 779 3096 
Q 1206 3584 1959 3584 
z
" transform="scale(0.015625)"/>
       <path id="DejaVuSans-72" d="M 2631 2963 
Q 2534 3019 2420 3045 
Q 2306 3072 2169 3072 
Q 1681 3072 1420 2755 
Q 1159 2438 1159 1844 
L 1159 0 
L 581 0 
L 581 3500 
L 1159 3500 
L 1159 2956 
Q 1341 3275 1631 3429 
Q 1922 3584 2338 3584 
Q 2397 3584 2469 3576 
Q 2541 3569 2628 3553 
L 2631 2963 
z
" transform="scale(0.015625)"/>
       <path id="DejaVuSans-79" d="M 2059 -325 
Q 1816 -950 1584 -1140 
Q 1353 -1331 966 -1331 
L 506 -1331 
L 506 -850 
L 844 -850 
Q 1081 -850 1212 -737 
Q 1344 -625 1503 -206 
L 1606 56 
L 191 3500 
L 800 3500 
L 1894 763 
L 2988 3500 
L 3597 3500 
L 2059 -325 
z
" transform="scale(0.015625)"/>
       <path id="DejaVuSans-3a" d="M 750 794 
L 1409 794 
L 1409 0 
L 750 0 
L 750 794 
z
M 750 3309 
L 1409 3309 
L 1409 2516 
L 750 2516 
L 750 3309 
z
" transform="scale(0.015625)"/>
       <path id="DejaVuSans-20" transform="scale(0.015625)"/>
      </defs>
      <use xlink:href="#DejaVuSans-77"/>
      <use xlink:href="#DejaVuSans-65" x="81.787109"/>
      <use xlink:href="#DejaVuSans-69" x="143.310547"/>
      <use xlink:href="#DejaVuSans-6e" x="171.09375"/>
      <use xlink:href="#DejaVuSans-67" x="234.472656"/>
      <use xlink:href="#DejaVuSans-68" x="297.949219"/>
      <use xlink:href="#DejaVuSans-74" x="361.328125"/>
      <use xlink:href="#DejaVuSans-73" x="400.537109"/>
      <use xlink:href="#DejaVuSans-5f" x="452.636719"/>
      <use xlink:href="#DejaVuSans-68" x="502.636719"/>
      <use xlink:href="#DejaVuSans-69" x="566.015625"/>
      <use xlink:href="#DejaVuSans-73" x="593.798828"/>
      <use xlink:href="#DejaVuSans-6f" x="645.898438"/>
      <use xlink:href="#DejaVuSans-74" x="707.080078"/>
      <use xlink:href="#DejaVuSans-69" x="746.289062"/>
      <use xlink:href="#DejaVuSans-72" x="774.072266"/>
      <use xlink:href="#DejaVuSans-79" x="815.185547"/>
      <use xlink:href="#DejaVuSans-3a" x="867.115234"/>
      <use xlink:href="#DejaVuSans-20" x="900.806641"/>
      <use xlink:href="#DejaVuSans-30" x="932.59375"/>
     </g>
    </g>
    <g id="line2d_41">
     <path d="M 656.524375 105.591094 
L 669.524375 105.591094 
L 682.524375 105.591094 
" style="fill: none; stroke: #ff7f0e; stroke-width: 1.5; stroke-linecap: square"/>
    </g>
    <g id="text_18">
     <!-- weinghts_hisotiry: 1 -->
     <g transform="translate(692.924375 110.141094)scale(0.13 -0.13)">
      <use xlink:href="#DejaVuSans-77"/>
      <use xlink:href="#DejaVuSans-65" x="81.787109"/>
      <use xlink:href="#DejaVuSans-69" x="143.310547"/>
      <use xlink:href="#DejaVuSans-6e" x="171.09375"/>
      <use xlink:href="#DejaVuSans-67" x="234.472656"/>
      <use xlink:href="#DejaVuSans-68" x="297.949219"/>
      <use xlink:href="#DejaVuSans-74" x="361.328125"/>
      <use xlink:href="#DejaVuSans-73" x="400.537109"/>
      <use xlink:href="#DejaVuSans-5f" x="452.636719"/>
      <use xlink:href="#DejaVuSans-68" x="502.636719"/>
      <use xlink:href="#DejaVuSans-69" x="566.015625"/>
      <use xlink:href="#DejaVuSans-73" x="593.798828"/>
      <use xlink:href="#DejaVuSans-6f" x="645.898438"/>
      <use xlink:href="#DejaVuSans-74" x="707.080078"/>
      <use xlink:href="#DejaVuSans-69" x="746.289062"/>
      <use xlink:href="#DejaVuSans-72" x="774.072266"/>
      <use xlink:href="#DejaVuSans-79" x="815.185547"/>
      <use xlink:href="#DejaVuSans-3a" x="867.115234"/>
      <use xlink:href="#DejaVuSans-20" x="900.806641"/>
      <use xlink:href="#DejaVuSans-31" x="932.59375"/>
     </g>
    </g>
    <g id="line2d_42">
     <path d="M 656.524375 125.034219 
L 669.524375 125.034219 
L 682.524375 125.034219 
" style="fill: none; stroke: #2ca02c; stroke-width: 1.5; stroke-linecap: square"/>
    </g>
    <g id="text_19">
     <!-- weinghts_hisotiry: 2 -->
     <g transform="translate(692.924375 129.584219)scale(0.13 -0.13)">
      <use xlink:href="#DejaVuSans-77"/>
      <use xlink:href="#DejaVuSans-65" x="81.787109"/>
      <use xlink:href="#DejaVuSans-69" x="143.310547"/>
      <use xlink:href="#DejaVuSans-6e" x="171.09375"/>
      <use xlink:href="#DejaVuSans-67" x="234.472656"/>
      <use xlink:href="#DejaVuSans-68" x="297.949219"/>
      <use xlink:href="#DejaVuSans-74" x="361.328125"/>
      <use xlink:href="#DejaVuSans-73" x="400.537109"/>
      <use xlink:href="#DejaVuSans-5f" x="452.636719"/>
      <use xlink:href="#DejaVuSans-68" x="502.636719"/>
      <use xlink:href="#DejaVuSans-69" x="566.015625"/>
      <use xlink:href="#DejaVuSans-73" x="593.798828"/>
      <use xlink:href="#DejaVuSans-6f" x="645.898438"/>
      <use xlink:href="#DejaVuSans-74" x="707.080078"/>
      <use xlink:href="#DejaVuSans-69" x="746.289062"/>
      <use xlink:href="#DejaVuSans-72" x="774.072266"/>
      <use xlink:href="#DejaVuSans-79" x="815.185547"/>
      <use xlink:href="#DejaVuSans-3a" x="867.115234"/>
      <use xlink:href="#DejaVuSans-20" x="900.806641"/>
      <use xlink:href="#DejaVuSans-32" x="932.59375"/>
     </g>
    </g>
    <g id="line2d_43">
     <path d="M 656.524375 144.477344 
L 669.524375 144.477344 
L 682.524375 144.477344 
" style="fill: none; stroke: #d62728; stroke-width: 1.5; stroke-linecap: square"/>
    </g>
    <g id="text_20">
     <!-- weinghts_hisotiry: 3 -->
     <g transform="translate(692.924375 149.027344)scale(0.13 -0.13)">
      <use xlink:href="#DejaVuSans-77"/>
      <use xlink:href="#DejaVuSans-65" x="81.787109"/>
      <use xlink:href="#DejaVuSans-69" x="143.310547"/>
      <use xlink:href="#DejaVuSans-6e" x="171.09375"/>
      <use xlink:href="#DejaVuSans-67" x="234.472656"/>
      <use xlink:href="#DejaVuSans-68" x="297.949219"/>
      <use xlink:href="#DejaVuSans-74" x="361.328125"/>
      <use xlink:href="#DejaVuSans-73" x="400.537109"/>
      <use xlink:href="#DejaVuSans-5f" x="452.636719"/>
      <use xlink:href="#DejaVuSans-68" x="502.636719"/>
      <use xlink:href="#DejaVuSans-69" x="566.015625"/>
      <use xlink:href="#DejaVuSans-73" x="593.798828"/>
      <use xlink:href="#DejaVuSans-6f" x="645.898438"/>
      <use xlink:href="#DejaVuSans-74" x="707.080078"/>
      <use xlink:href="#DejaVuSans-69" x="746.289062"/>
      <use xlink:href="#DejaVuSans-72" x="774.072266"/>
      <use xlink:href="#DejaVuSans-79" x="815.185547"/>
      <use xlink:href="#DejaVuSans-3a" x="867.115234"/>
      <use xlink:href="#DejaVuSans-20" x="900.806641"/>
      <use xlink:href="#DejaVuSans-33" x="932.59375"/>
     </g>
    </g>
    <g id="line2d_44">
     <path d="M 656.524375 163.920469 
L 669.524375 163.920469 
L 682.524375 163.920469 
" style="fill: none; stroke: #9467bd; stroke-width: 1.5; stroke-linecap: square"/>
    </g>
    <g id="text_21">
     <!-- weinghts_hisotiry: 4 -->
     <g transform="translate(692.924375 168.470469)scale(0.13 -0.13)">
      <use xlink:href="#DejaVuSans-77"/>
      <use xlink:href="#DejaVuSans-65" x="81.787109"/>
      <use xlink:href="#DejaVuSans-69" x="143.310547"/>
      <use xlink:href="#DejaVuSans-6e" x="171.09375"/>
      <use xlink:href="#DejaVuSans-67" x="234.472656"/>
      <use xlink:href="#DejaVuSans-68" x="297.949219"/>
      <use xlink:href="#DejaVuSans-74" x="361.328125"/>
      <use xlink:href="#DejaVuSans-73" x="400.537109"/>
      <use xlink:href="#DejaVuSans-5f" x="452.636719"/>
      <use xlink:href="#DejaVuSans-68" x="502.636719"/>
      <use xlink:href="#DejaVuSans-69" x="566.015625"/>
      <use xlink:href="#DejaVuSans-73" x="593.798828"/>
      <use xlink:href="#DejaVuSans-6f" x="645.898438"/>
      <use xlink:href="#DejaVuSans-74" x="707.080078"/>
      <use xlink:href="#DejaVuSans-69" x="746.289062"/>
      <use xlink:href="#DejaVuSans-72" x="774.072266"/>
      <use xlink:href="#DejaVuSans-79" x="815.185547"/>
      <use xlink:href="#DejaVuSans-3a" x="867.115234"/>
      <use xlink:href="#DejaVuSans-20" x="900.806641"/>
      <use xlink:href="#DejaVuSans-34" x="932.59375"/>
     </g>
    </g>
    <g id="line2d_45">
     <path d="M 656.524375 183.363594 
L 669.524375 183.363594 
L 682.524375 183.363594 
" style="fill: none; stroke: #8c564b; stroke-width: 1.5; stroke-linecap: square"/>
    </g>
    <g id="text_22">
     <!-- weinghts_hisotiry: 5 -->
     <g transform="translate(692.924375 187.913594)scale(0.13 -0.13)">
      <use xlink:href="#DejaVuSans-77"/>
      <use xlink:href="#DejaVuSans-65" x="81.787109"/>
      <use xlink:href="#DejaVuSans-69" x="143.310547"/>
      <use xlink:href="#DejaVuSans-6e" x="171.09375"/>
      <use xlink:href="#DejaVuSans-67" x="234.472656"/>
      <use xlink:href="#DejaVuSans-68" x="297.949219"/>
      <use xlink:href="#DejaVuSans-74" x="361.328125"/>
      <use xlink:href="#DejaVuSans-73" x="400.537109"/>
      <use xlink:href="#DejaVuSans-5f" x="452.636719"/>
      <use xlink:href="#DejaVuSans-68" x="502.636719"/>
      <use xlink:href="#DejaVuSans-69" x="566.015625"/>
      <use xlink:href="#DejaVuSans-73" x="593.798828"/>
      <use xlink:href="#DejaVuSans-6f" x="645.898438"/>
      <use xlink:href="#DejaVuSans-74" x="707.080078"/>
      <use xlink:href="#DejaVuSans-69" x="746.289062"/>
      <use xlink:href="#DejaVuSans-72" x="774.072266"/>
      <use xlink:href="#DejaVuSans-79" x="815.185547"/>
      <use xlink:href="#DejaVuSans-3a" x="867.115234"/>
      <use xlink:href="#DejaVuSans-20" x="900.806641"/>
      <use xlink:href="#DejaVuSans-35" x="932.59375"/>
     </g>
    </g>
    <g id="line2d_46">
     <path d="M 656.524375 202.806719 
L 669.524375 202.806719 
L 682.524375 202.806719 
" style="fill: none; stroke: #e377c2; stroke-width: 1.5; stroke-linecap: square"/>
    </g>
    <g id="text_23">
     <!-- weinghts_hisotiry: 6 -->
     <g transform="translate(692.924375 207.356719)scale(0.13 -0.13)">
      <defs>
       <path id="DejaVuSans-36" d="M 2113 2584 
Q 1688 2584 1439 2293 
Q 1191 2003 1191 1497 
Q 1191 994 1439 701 
Q 1688 409 2113 409 
Q 2538 409 2786 701 
Q 3034 994 3034 1497 
Q 3034 2003 2786 2293 
Q 2538 2584 2113 2584 
z
M 3366 4563 
L 3366 3988 
Q 3128 4100 2886 4159 
Q 2644 4219 2406 4219 
Q 1781 4219 1451 3797 
Q 1122 3375 1075 2522 
Q 1259 2794 1537 2939 
Q 1816 3084 2150 3084 
Q 2853 3084 3261 2657 
Q 3669 2231 3669 1497 
Q 3669 778 3244 343 
Q 2819 -91 2113 -91 
Q 1303 -91 875 529 
Q 447 1150 447 2328 
Q 447 3434 972 4092 
Q 1497 4750 2381 4750 
Q 2619 4750 2861 4703 
Q 3103 4656 3366 4563 
z
" transform="scale(0.015625)"/>
      </defs>
      <use xlink:href="#DejaVuSans-77"/>
      <use xlink:href="#DejaVuSans-65" x="81.787109"/>
      <use xlink:href="#DejaVuSans-69" x="143.310547"/>
      <use xlink:href="#DejaVuSans-6e" x="171.09375"/>
      <use xlink:href="#DejaVuSans-67" x="234.472656"/>
      <use xlink:href="#DejaVuSans-68" x="297.949219"/>
      <use xlink:href="#DejaVuSans-74" x="361.328125"/>
      <use xlink:href="#DejaVuSans-73" x="400.537109"/>
      <use xlink:href="#DejaVuSans-5f" x="452.636719"/>
      <use xlink:href="#DejaVuSans-68" x="502.636719"/>
      <use xlink:href="#DejaVuSans-69" x="566.015625"/>
      <use xlink:href="#DejaVuSans-73" x="593.798828"/>
      <use xlink:href="#DejaVuSans-6f" x="645.898438"/>
      <use xlink:href="#DejaVuSans-74" x="707.080078"/>
      <use xlink:href="#DejaVuSans-69" x="746.289062"/>
      <use xlink:href="#DejaVuSans-72" x="774.072266"/>
      <use xlink:href="#DejaVuSans-79" x="815.185547"/>
      <use xlink:href="#DejaVuSans-3a" x="867.115234"/>
      <use xlink:href="#DejaVuSans-20" x="900.806641"/>
      <use xlink:href="#DejaVuSans-36" x="932.59375"/>
     </g>
    </g>
    <g id="line2d_47">
     <path d="M 656.524375 222.249844 
L 669.524375 222.249844 
L 682.524375 222.249844 
" style="fill: none; stroke: #7f7f7f; stroke-width: 1.5; stroke-linecap: square"/>
    </g>
    <g id="text_24">
     <!-- weinghts_hisotiry: 7 -->
     <g transform="translate(692.924375 226.799844)scale(0.13 -0.13)">
      <use xlink:href="#DejaVuSans-77"/>
      <use xlink:href="#DejaVuSans-65" x="81.787109"/>
      <use xlink:href="#DejaVuSans-69" x="143.310547"/>
      <use xlink:href="#DejaVuSans-6e" x="171.09375"/>
      <use xlink:href="#DejaVuSans-67" x="234.472656"/>
      <use xlink:href="#DejaVuSans-68" x="297.949219"/>
      <use xlink:href="#DejaVuSans-74" x="361.328125"/>
      <use xlink:href="#DejaVuSans-73" x="400.537109"/>
      <use xlink:href="#DejaVuSans-5f" x="452.636719"/>
      <use xlink:href="#DejaVuSans-68" x="502.636719"/>
      <use xlink:href="#DejaVuSans-69" x="566.015625"/>
      <use xlink:href="#DejaVuSans-73" x="593.798828"/>
      <use xlink:href="#DejaVuSans-6f" x="645.898438"/>
      <use xlink:href="#DejaVuSans-74" x="707.080078"/>
      <use xlink:href="#DejaVuSans-69" x="746.289062"/>
      <use xlink:href="#DejaVuSans-72" x="774.072266"/>
      <use xlink:href="#DejaVuSans-79" x="815.185547"/>
      <use xlink:href="#DejaVuSans-3a" x="867.115234"/>
      <use xlink:href="#DejaVuSans-20" x="900.806641"/>
      <use xlink:href="#DejaVuSans-37" x="932.59375"/>
     </g>
    </g>
    <g id="line2d_48">
     <path d="M 656.524375 241.692969 
L 669.524375 241.692969 
L 682.524375 241.692969 
" style="fill: none; stroke: #bcbd22; stroke-width: 1.5; stroke-linecap: square"/>
    </g>
    <g id="text_25">
     <!-- weinghts_hisotiry: 8 -->
     <g transform="translate(692.924375 246.242969)scale(0.13 -0.13)">
      <defs>
       <path id="DejaVuSans-38" d="M 2034 2216 
Q 1584 2216 1326 1975 
Q 1069 1734 1069 1313 
Q 1069 891 1326 650 
Q 1584 409 2034 409 
Q 2484 409 2743 651 
Q 3003 894 3003 1313 
Q 3003 1734 2745 1975 
Q 2488 2216 2034 2216 
z
M 1403 2484 
Q 997 2584 770 2862 
Q 544 3141 544 3541 
Q 544 4100 942 4425 
Q 1341 4750 2034 4750 
Q 2731 4750 3128 4425 
Q 3525 4100 3525 3541 
Q 3525 3141 3298 2862 
Q 3072 2584 2669 2484 
Q 3125 2378 3379 2068 
Q 3634 1759 3634 1313 
Q 3634 634 3220 271 
Q 2806 -91 2034 -91 
Q 1263 -91 848 271 
Q 434 634 434 1313 
Q 434 1759 690 2068 
Q 947 2378 1403 2484 
z
M 1172 3481 
Q 1172 3119 1398 2916 
Q 1625 2713 2034 2713 
Q 2441 2713 2670 2916 
Q 2900 3119 2900 3481 
Q 2900 3844 2670 4047 
Q 2441 4250 2034 4250 
Q 1625 4250 1398 4047 
Q 1172 3844 1172 3481 
z
" transform="scale(0.015625)"/>
      </defs>
      <use xlink:href="#DejaVuSans-77"/>
      <use xlink:href="#DejaVuSans-65" x="81.787109"/>
      <use xlink:href="#DejaVuSans-69" x="143.310547"/>
      <use xlink:href="#DejaVuSans-6e" x="171.09375"/>
      <use xlink:href="#DejaVuSans-67" x="234.472656"/>
      <use xlink:href="#DejaVuSans-68" x="297.949219"/>
      <use xlink:href="#DejaVuSans-74" x="361.328125"/>
      <use xlink:href="#DejaVuSans-73" x="400.537109"/>
      <use xlink:href="#DejaVuSans-5f" x="452.636719"/>
      <use xlink:href="#DejaVuSans-68" x="502.636719"/>
      <use xlink:href="#DejaVuSans-69" x="566.015625"/>
      <use xlink:href="#DejaVuSans-73" x="593.798828"/>
      <use xlink:href="#DejaVuSans-6f" x="645.898438"/>
      <use xlink:href="#DejaVuSans-74" x="707.080078"/>
      <use xlink:href="#DejaVuSans-69" x="746.289062"/>
      <use xlink:href="#DejaVuSans-72" x="774.072266"/>
      <use xlink:href="#DejaVuSans-79" x="815.185547"/>
      <use xlink:href="#DejaVuSans-3a" x="867.115234"/>
      <use xlink:href="#DejaVuSans-20" x="900.806641"/>
      <use xlink:href="#DejaVuSans-38" x="932.59375"/>
     </g>
    </g>
    <g id="line2d_49">
     <path d="M 656.524375 261.136094 
L 669.524375 261.136094 
L 682.524375 261.136094 
" style="fill: none; stroke: #17becf; stroke-width: 1.5; stroke-linecap: square"/>
    </g>
    <g id="text_26">
     <!-- weinghts_hisotiry: 9 -->
     <g transform="translate(692.924375 265.686094)scale(0.13 -0.13)">
      <defs>
       <path id="DejaVuSans-39" d="M 703 97 
L 703 672 
Q 941 559 1184 500 
Q 1428 441 1663 441 
Q 2288 441 2617 861 
Q 2947 1281 2994 2138 
Q 2813 1869 2534 1725 
Q 2256 1581 1919 1581 
Q 1219 1581 811 2004 
Q 403 2428 403 3163 
Q 403 3881 828 4315 
Q 1253 4750 1959 4750 
Q 2769 4750 3195 4129 
Q 3622 3509 3622 2328 
Q 3622 1225 3098 567 
Q 2575 -91 1691 -91 
Q 1453 -91 1209 -44 
Q 966 3 703 97 
z
M 1959 2075 
Q 2384 2075 2632 2365 
Q 2881 2656 2881 3163 
Q 2881 3666 2632 3958 
Q 2384 4250 1959 4250 
Q 1534 4250 1286 3958 
Q 1038 3666 1038 3163 
Q 1038 2656 1286 2365 
Q 1534 2075 1959 2075 
z
" transform="scale(0.015625)"/>
      </defs>
      <use xlink:href="#DejaVuSans-77"/>
      <use xlink:href="#DejaVuSans-65" x="81.787109"/>
      <use xlink:href="#DejaVuSans-69" x="143.310547"/>
      <use xlink:href="#DejaVuSans-6e" x="171.09375"/>
      <use xlink:href="#DejaVuSans-67" x="234.472656"/>
      <use xlink:href="#DejaVuSans-68" x="297.949219"/>
      <use xlink:href="#DejaVuSans-74" x="361.328125"/>
      <use xlink:href="#DejaVuSans-73" x="400.537109"/>
      <use xlink:href="#DejaVuSans-5f" x="452.636719"/>
      <use xlink:href="#DejaVuSans-68" x="502.636719"/>
      <use xlink:href="#DejaVuSans-69" x="566.015625"/>
      <use xlink:href="#DejaVuSans-73" x="593.798828"/>
      <use xlink:href="#DejaVuSans-6f" x="645.898438"/>
      <use xlink:href="#DejaVuSans-74" x="707.080078"/>
      <use xlink:href="#DejaVuSans-69" x="746.289062"/>
      <use xlink:href="#DejaVuSans-72" x="774.072266"/>
      <use xlink:href="#DejaVuSans-79" x="815.185547"/>
      <use xlink:href="#DejaVuSans-3a" x="867.115234"/>
      <use xlink:href="#DejaVuSans-20" x="900.806641"/>
      <use xlink:href="#DejaVuSans-39" x="932.59375"/>
     </g>
    </g>
    <g id="line2d_50">
     <path d="M 656.524375 280.579219 
L 669.524375 280.579219 
L 682.524375 280.579219 
" style="fill: none; stroke: #1f77b4; stroke-width: 1.5; stroke-linecap: square"/>
    </g>
    <g id="text_27">
     <!-- weinghts_hisotiry: 10 -->
     <g transform="translate(692.924375 285.129219)scale(0.13 -0.13)">
      <use xlink:href="#DejaVuSans-77"/>
      <use xlink:href="#DejaVuSans-65" x="81.787109"/>
      <use xlink:href="#DejaVuSans-69" x="143.310547"/>
      <use xlink:href="#DejaVuSans-6e" x="171.09375"/>
      <use xlink:href="#DejaVuSans-67" x="234.472656"/>
      <use xlink:href="#DejaVuSans-68" x="297.949219"/>
      <use xlink:href="#DejaVuSans-74" x="361.328125"/>
      <use xlink:href="#DejaVuSans-73" x="400.537109"/>
      <use xlink:href="#DejaVuSans-5f" x="452.636719"/>
      <use xlink:href="#DejaVuSans-68" x="502.636719"/>
      <use xlink:href="#DejaVuSans-69" x="566.015625"/>
      <use xlink:href="#DejaVuSans-73" x="593.798828"/>
      <use xlink:href="#DejaVuSans-6f" x="645.898438"/>
      <use xlink:href="#DejaVuSans-74" x="707.080078"/>
      <use xlink:href="#DejaVuSans-69" x="746.289062"/>
      <use xlink:href="#DejaVuSans-72" x="774.072266"/>
      <use xlink:href="#DejaVuSans-79" x="815.185547"/>
      <use xlink:href="#DejaVuSans-3a" x="867.115234"/>
      <use xlink:href="#DejaVuSans-20" x="900.806641"/>
      <use xlink:href="#DejaVuSans-31" x="932.59375"/>
      <use xlink:href="#DejaVuSans-30" x="996.216797"/>
     </g>
    </g>
   </g>
  </g>
 </g>
 <defs>
  <clipPath id="p36bad32ffc">
   <rect x="117" y="69.12" width="725.4" height="434.88"/>
  </clipPath>
 </defs>
</svg>
