<?xml version="1.0" encoding="utf-8" standalone="no"?>
<!DOCTYPE svg PUBLIC "-//W3C//DTD SVG 1.1//EN"
  "http://www.w3.org/Graphics/SVG/1.1/DTD/svg11.dtd">
<!-- Created with matplotlib (https://matplotlib.org/) -->
<svg height="576pt" version="1.1" viewBox="0 0 936 576" width="936pt" xmlns="http://www.w3.org/2000/svg" xmlns:xlink="http://www.w3.org/1999/xlink">
 <metadata>
  <rdf:RDF xmlns:cc="http://creativecommons.org/ns#" xmlns:dc="http://purl.org/dc/elements/1.1/" xmlns:rdf="http://www.w3.org/1999/02/22-rdf-syntax-ns#">
   <cc:Work>
    <dc:type rdf:resource="http://purl.org/dc/dcmitype/StillImage"/>
    <dc:date>2021-04-03T17:25:08.923287</dc:date>
    <dc:format>image/svg+xml</dc:format>
    <dc:creator>
     <cc:Agent>
      <dc:title>Matplotlib v3.3.3, https://matplotlib.org/</dc:title>
     </cc:Agent>
    </dc:creator>
   </cc:Work>
  </rdf:RDF>
 </metadata>
 <defs>
  <style type="text/css">*{stroke-linecap:butt;stroke-linejoin:round;}</style>
 </defs>
 <g id="figure_1">
  <g id="patch_1">
   <path d="M 0 576 
L 936 576 
L 936 0 
L 0 0 
z
" style="fill:none;"/>
  </g>
  <g id="axes_1">
   <g id="patch_2">
    <path d="M 117 504 
L 842.4 504 
L 842.4 69.12 
L 117 69.12 
z
" style="fill:#ffffff;"/>
   </g>
   <g id="PathCollection_1">
    <defs>
     <path d="M 0 3 
C 0.795609 3 1.55874 2.683901 2.12132 2.12132 
C 2.683901 1.55874 3 0.795609 3 0 
C 3 -0.795609 2.683901 -1.55874 2.12132 -2.12132 
C 1.55874 -2.683901 0.795609 -3 0 -3 
C -0.795609 -3 -1.55874 -2.683901 -2.12132 -2.12132 
C -2.683901 -1.55874 -3 -0.795609 -3 0 
C -3 0.795609 -2.683901 1.55874 -2.12132 2.12132 
C -1.55874 2.683901 -0.795609 3 0 3 
z
" id="m3ad491f720" style="stroke:#1f77b4;"/>
    </defs>
    <g clip-path="url(#pc8bfcbb456)">
     <use style="fill:#1f77b4;stroke:#1f77b4;" x="515.109316" xlink:href="#m3ad491f720" y="431.731076"/>
     <use style="fill:#1f77b4;stroke:#1f77b4;" x="635.798366" xlink:href="#m3ad491f720" y="425.962652"/>
     <use style="fill:#1f77b4;stroke:#1f77b4;" x="554.244553" xlink:href="#m3ad491f720" y="430.635625"/>
     <use style="fill:#1f77b4;stroke:#1f77b4;" x="512.258261" xlink:href="#m3ad491f720" y="432.23363"/>
     <use style="fill:#1f77b4;stroke:#1f77b4;" x="424.319191" xlink:href="#m3ad491f720" y="438.122625"/>
     <use style="fill:#1f77b4;stroke:#1f77b4;" x="585.53159" xlink:href="#m3ad491f720" y="428.733905"/>
     <use style="fill:#1f77b4;stroke:#1f77b4;" x="434.425763" xlink:href="#m3ad491f720" y="437.525278"/>
     <use style="fill:#1f77b4;stroke:#1f77b4;" x="763.892135" xlink:href="#m3ad491f720" y="419.668574"/>
     <use style="fill:#1f77b4;stroke:#1f77b4;" x="816.040966" xlink:href="#m3ad491f720" y="418.086555"/>
     <use style="fill:#1f77b4;stroke:#1f77b4;" x="395.148478" xlink:href="#m3ad491f720" y="439.205561"/>
     <use style="fill:#1f77b4;stroke:#1f77b4;" x="691.317343" xlink:href="#m3ad491f720" y="424.249589"/>
     <use style="fill:#1f77b4;stroke:#1f77b4;" x="500.660375" xlink:href="#m3ad491f720" y="432.852579"/>
     <use style="fill:#1f77b4;stroke:#1f77b4;" x="529.059525" xlink:href="#m3ad491f720" y="431.939435"/>
     <use style="fill:#1f77b4;stroke:#1f77b4;" x="788.427801" xlink:href="#m3ad491f720" y="419.232505"/>
     <use style="fill:#1f77b4;stroke:#1f77b4;" x="168.529557" xlink:href="#m3ad491f720" y="453.361375"/>
     <use style="fill:#1f77b4;stroke:#1f77b4;" x="180.203594" xlink:href="#m3ad491f720" y="451.557298"/>
     <use style="fill:#1f77b4;stroke:#1f77b4;" x="131.666426" xlink:href="#m3ad491f720" y="454.652829"/>
     <use style="fill:#1f77b4;stroke:#1f77b4;" x="720.982436" xlink:href="#m3ad491f720" y="422.227958"/>
     <use style="fill:#1f77b4;stroke:#1f77b4;" x="681.474907" xlink:href="#m3ad491f720" y="423.503659"/>
     <use style="fill:#1f77b4;stroke:#1f77b4;" x="748.106812" xlink:href="#m3ad491f720" y="420.858775"/>
    </g>
   </g>
   <g id="matplotlib.axis_1">
    <g id="xtick_1">
     <g id="line2d_1">
      <path clip-path="url(#pc8bfcbb456)" d="M 117 504 
L 117 69.12 
" style="fill:none;stroke:#b0b0b0;stroke-linecap:square;stroke-width:0.8;"/>
     </g>
     <g id="line2d_2">
      <defs>
       <path d="M 0 0 
L 0 3.5 
" id="m2c41f6af57" style="stroke:#000000;stroke-width:0.8;"/>
      </defs>
      <g>
       <use style="stroke:#000000;stroke-width:0.8;" x="117" xlink:href="#m2c41f6af57" y="504"/>
      </g>
     </g>
     <g id="text_1">
      <!-- −1.00 -->
      <g transform="translate(101.677344 518.598438)scale(0.1 -0.1)">
       <defs>
        <path d="M 10.59375 35.5 
L 73.1875 35.5 
L 73.1875 27.203125 
L 10.59375 27.203125 
z
" id="DejaVuSans-8722"/>
        <path d="M 12.40625 8.296875 
L 28.515625 8.296875 
L 28.515625 63.921875 
L 10.984375 60.40625 
L 10.984375 69.390625 
L 28.421875 72.90625 
L 38.28125 72.90625 
L 38.28125 8.296875 
L 54.390625 8.296875 
L 54.390625 0 
L 12.40625 0 
z
" id="DejaVuSans-49"/>
        <path d="M 10.6875 12.40625 
L 21 12.40625 
L 21 0 
L 10.6875 0 
z
" id="DejaVuSans-46"/>
        <path d="M 31.78125 66.40625 
Q 24.171875 66.40625 20.328125 58.90625 
Q 16.5 51.421875 16.5 36.375 
Q 16.5 21.390625 20.328125 13.890625 
Q 24.171875 6.390625 31.78125 6.390625 
Q 39.453125 6.390625 43.28125 13.890625 
Q 47.125 21.390625 47.125 36.375 
Q 47.125 51.421875 43.28125 58.90625 
Q 39.453125 66.40625 31.78125 66.40625 
z
M 31.78125 74.21875 
Q 44.046875 74.21875 50.515625 64.515625 
Q 56.984375 54.828125 56.984375 36.375 
Q 56.984375 17.96875 50.515625 8.265625 
Q 44.046875 -1.421875 31.78125 -1.421875 
Q 19.53125 -1.421875 13.0625 8.265625 
Q 6.59375 17.96875 6.59375 36.375 
Q 6.59375 54.828125 13.0625 64.515625 
Q 19.53125 74.21875 31.78125 74.21875 
z
" id="DejaVuSans-48"/>
       </defs>
       <use xlink:href="#DejaVuSans-8722"/>
       <use x="83.789062" xlink:href="#DejaVuSans-49"/>
       <use x="147.412109" xlink:href="#DejaVuSans-46"/>
       <use x="179.199219" xlink:href="#DejaVuSans-48"/>
       <use x="242.822266" xlink:href="#DejaVuSans-48"/>
      </g>
     </g>
    </g>
    <g id="xtick_2">
     <g id="line2d_3">
      <path clip-path="url(#pc8bfcbb456)" d="M 207.675 504 
L 207.675 69.12 
" style="fill:none;stroke:#b0b0b0;stroke-linecap:square;stroke-width:0.8;"/>
     </g>
     <g id="line2d_4">
      <g>
       <use style="stroke:#000000;stroke-width:0.8;" x="207.675" xlink:href="#m2c41f6af57" y="504"/>
      </g>
     </g>
     <g id="text_2">
      <!-- −0.75 -->
      <g transform="translate(192.352344 518.598438)scale(0.1 -0.1)">
       <defs>
        <path d="M 8.203125 72.90625 
L 55.078125 72.90625 
L 55.078125 68.703125 
L 28.609375 0 
L 18.3125 0 
L 43.21875 64.59375 
L 8.203125 64.59375 
z
" id="DejaVuSans-55"/>
        <path d="M 10.796875 72.90625 
L 49.515625 72.90625 
L 49.515625 64.59375 
L 19.828125 64.59375 
L 19.828125 46.734375 
Q 21.96875 47.46875 24.109375 47.828125 
Q 26.265625 48.1875 28.421875 48.1875 
Q 40.625 48.1875 47.75 41.5 
Q 54.890625 34.8125 54.890625 23.390625 
Q 54.890625 11.625 47.5625 5.09375 
Q 40.234375 -1.421875 26.90625 -1.421875 
Q 22.3125 -1.421875 17.546875 -0.640625 
Q 12.796875 0.140625 7.71875 1.703125 
L 7.71875 11.625 
Q 12.109375 9.234375 16.796875 8.0625 
Q 21.484375 6.890625 26.703125 6.890625 
Q 35.15625 6.890625 40.078125 11.328125 
Q 45.015625 15.765625 45.015625 23.390625 
Q 45.015625 31 40.078125 35.4375 
Q 35.15625 39.890625 26.703125 39.890625 
Q 22.75 39.890625 18.8125 39.015625 
Q 14.890625 38.140625 10.796875 36.28125 
z
" id="DejaVuSans-53"/>
       </defs>
       <use xlink:href="#DejaVuSans-8722"/>
       <use x="83.789062" xlink:href="#DejaVuSans-48"/>
       <use x="147.412109" xlink:href="#DejaVuSans-46"/>
       <use x="179.199219" xlink:href="#DejaVuSans-55"/>
       <use x="242.822266" xlink:href="#DejaVuSans-53"/>
      </g>
     </g>
    </g>
    <g id="xtick_3">
     <g id="line2d_5">
      <path clip-path="url(#pc8bfcbb456)" d="M 298.35 504 
L 298.35 69.12 
" style="fill:none;stroke:#b0b0b0;stroke-linecap:square;stroke-width:0.8;"/>
     </g>
     <g id="line2d_6">
      <g>
       <use style="stroke:#000000;stroke-width:0.8;" x="298.35" xlink:href="#m2c41f6af57" y="504"/>
      </g>
     </g>
     <g id="text_3">
      <!-- −0.50 -->
      <g transform="translate(283.027344 518.598438)scale(0.1 -0.1)">
       <use xlink:href="#DejaVuSans-8722"/>
       <use x="83.789062" xlink:href="#DejaVuSans-48"/>
       <use x="147.412109" xlink:href="#DejaVuSans-46"/>
       <use x="179.199219" xlink:href="#DejaVuSans-53"/>
       <use x="242.822266" xlink:href="#DejaVuSans-48"/>
      </g>
     </g>
    </g>
    <g id="xtick_4">
     <g id="line2d_7">
      <path clip-path="url(#pc8bfcbb456)" d="M 389.025 504 
L 389.025 69.12 
" style="fill:none;stroke:#b0b0b0;stroke-linecap:square;stroke-width:0.8;"/>
     </g>
     <g id="line2d_8">
      <g>
       <use style="stroke:#000000;stroke-width:0.8;" x="389.025" xlink:href="#m2c41f6af57" y="504"/>
      </g>
     </g>
     <g id="text_4">
      <!-- −0.25 -->
      <g transform="translate(373.702344 518.598438)scale(0.1 -0.1)">
       <defs>
        <path d="M 19.1875 8.296875 
L 53.609375 8.296875 
L 53.609375 0 
L 7.328125 0 
L 7.328125 8.296875 
Q 12.9375 14.109375 22.625 23.890625 
Q 32.328125 33.6875 34.8125 36.53125 
Q 39.546875 41.84375 41.421875 45.53125 
Q 43.3125 49.21875 43.3125 52.78125 
Q 43.3125 58.59375 39.234375 62.25 
Q 35.15625 65.921875 28.609375 65.921875 
Q 23.96875 65.921875 18.8125 64.3125 
Q 13.671875 62.703125 7.8125 59.421875 
L 7.8125 69.390625 
Q 13.765625 71.78125 18.9375 73 
Q 24.125 74.21875 28.421875 74.21875 
Q 39.75 74.21875 46.484375 68.546875 
Q 53.21875 62.890625 53.21875 53.421875 
Q 53.21875 48.921875 51.53125 44.890625 
Q 49.859375 40.875 45.40625 35.40625 
Q 44.1875 33.984375 37.640625 27.21875 
Q 31.109375 20.453125 19.1875 8.296875 
z
" id="DejaVuSans-50"/>
       </defs>
       <use xlink:href="#DejaVuSans-8722"/>
       <use x="83.789062" xlink:href="#DejaVuSans-48"/>
       <use x="147.412109" xlink:href="#DejaVuSans-46"/>
       <use x="179.199219" xlink:href="#DejaVuSans-50"/>
       <use x="242.822266" xlink:href="#DejaVuSans-53"/>
      </g>
     </g>
    </g>
    <g id="xtick_5">
     <g id="line2d_9">
      <path clip-path="url(#pc8bfcbb456)" d="M 479.7 504 
L 479.7 69.12 
" style="fill:none;stroke:#b0b0b0;stroke-linecap:square;stroke-width:0.8;"/>
     </g>
     <g id="line2d_10">
      <g>
       <use style="stroke:#000000;stroke-width:0.8;" x="479.7" xlink:href="#m2c41f6af57" y="504"/>
      </g>
     </g>
     <g id="text_5">
      <!-- 0.00 -->
      <g transform="translate(468.567187 518.598438)scale(0.1 -0.1)">
       <use xlink:href="#DejaVuSans-48"/>
       <use x="63.623047" xlink:href="#DejaVuSans-46"/>
       <use x="95.410156" xlink:href="#DejaVuSans-48"/>
       <use x="159.033203" xlink:href="#DejaVuSans-48"/>
      </g>
     </g>
    </g>
    <g id="xtick_6">
     <g id="line2d_11">
      <path clip-path="url(#pc8bfcbb456)" d="M 570.375 504 
L 570.375 69.12 
" style="fill:none;stroke:#b0b0b0;stroke-linecap:square;stroke-width:0.8;"/>
     </g>
     <g id="line2d_12">
      <g>
       <use style="stroke:#000000;stroke-width:0.8;" x="570.375" xlink:href="#m2c41f6af57" y="504"/>
      </g>
     </g>
     <g id="text_6">
      <!-- 0.25 -->
      <g transform="translate(559.242188 518.598438)scale(0.1 -0.1)">
       <use xlink:href="#DejaVuSans-48"/>
       <use x="63.623047" xlink:href="#DejaVuSans-46"/>
       <use x="95.410156" xlink:href="#DejaVuSans-50"/>
       <use x="159.033203" xlink:href="#DejaVuSans-53"/>
      </g>
     </g>
    </g>
    <g id="xtick_7">
     <g id="line2d_13">
      <path clip-path="url(#pc8bfcbb456)" d="M 661.05 504 
L 661.05 69.12 
" style="fill:none;stroke:#b0b0b0;stroke-linecap:square;stroke-width:0.8;"/>
     </g>
     <g id="line2d_14">
      <g>
       <use style="stroke:#000000;stroke-width:0.8;" x="661.05" xlink:href="#m2c41f6af57" y="504"/>
      </g>
     </g>
     <g id="text_7">
      <!-- 0.50 -->
      <g transform="translate(649.917187 518.598438)scale(0.1 -0.1)">
       <use xlink:href="#DejaVuSans-48"/>
       <use x="63.623047" xlink:href="#DejaVuSans-46"/>
       <use x="95.410156" xlink:href="#DejaVuSans-53"/>
       <use x="159.033203" xlink:href="#DejaVuSans-48"/>
      </g>
     </g>
    </g>
    <g id="xtick_8">
     <g id="line2d_15">
      <path clip-path="url(#pc8bfcbb456)" d="M 751.725 504 
L 751.725 69.12 
" style="fill:none;stroke:#b0b0b0;stroke-linecap:square;stroke-width:0.8;"/>
     </g>
     <g id="line2d_16">
      <g>
       <use style="stroke:#000000;stroke-width:0.8;" x="751.725" xlink:href="#m2c41f6af57" y="504"/>
      </g>
     </g>
     <g id="text_8">
      <!-- 0.75 -->
      <g transform="translate(740.592187 518.598438)scale(0.1 -0.1)">
       <use xlink:href="#DejaVuSans-48"/>
       <use x="63.623047" xlink:href="#DejaVuSans-46"/>
       <use x="95.410156" xlink:href="#DejaVuSans-55"/>
       <use x="159.033203" xlink:href="#DejaVuSans-53"/>
      </g>
     </g>
    </g>
    <g id="xtick_9">
     <g id="line2d_17">
      <path clip-path="url(#pc8bfcbb456)" d="M 842.4 504 
L 842.4 69.12 
" style="fill:none;stroke:#b0b0b0;stroke-linecap:square;stroke-width:0.8;"/>
     </g>
     <g id="line2d_18">
      <g>
       <use style="stroke:#000000;stroke-width:0.8;" x="842.4" xlink:href="#m2c41f6af57" y="504"/>
      </g>
     </g>
     <g id="text_9">
      <!-- 1.00 -->
      <g transform="translate(831.267187 518.598438)scale(0.1 -0.1)">
       <use xlink:href="#DejaVuSans-49"/>
       <use x="63.623047" xlink:href="#DejaVuSans-46"/>
       <use x="95.410156" xlink:href="#DejaVuSans-48"/>
       <use x="159.033203" xlink:href="#DejaVuSans-48"/>
      </g>
     </g>
    </g>
    <g id="text_10">
     <!-- x -->
     <g transform="translate(476.740625 532.276562)scale(0.1 -0.1)">
      <defs>
       <path d="M 54.890625 54.6875 
L 35.109375 28.078125 
L 55.90625 0 
L 45.3125 0 
L 29.390625 21.484375 
L 13.484375 0 
L 2.875 0 
L 24.125 28.609375 
L 4.6875 54.6875 
L 15.28125 54.6875 
L 29.78125 35.203125 
L 44.28125 54.6875 
z
" id="DejaVuSans-120"/>
      </defs>
      <use xlink:href="#DejaVuSans-120"/>
     </g>
    </g>
   </g>
   <g id="matplotlib.axis_2">
    <g id="ytick_1">
     <g id="line2d_19">
      <path clip-path="url(#pc8bfcbb456)" d="M 117 490.704993 
L 842.4 490.704993 
" style="fill:none;stroke:#b0b0b0;stroke-linecap:square;stroke-width:0.8;"/>
     </g>
     <g id="line2d_20">
      <defs>
       <path d="M 0 0 
L -3.5 0 
" id="mc39f72d142" style="stroke:#000000;stroke-width:0.8;"/>
      </defs>
      <g>
       <use style="stroke:#000000;stroke-width:0.8;" x="117" xlink:href="#mc39f72d142" y="490.704993"/>
      </g>
     </g>
     <g id="text_11">
      <!-- 0 -->
      <g transform="translate(103.6375 494.504212)scale(0.1 -0.1)">
       <use xlink:href="#DejaVuSans-48"/>
      </g>
     </g>
    </g>
    <g id="ytick_2">
     <g id="line2d_21">
      <path clip-path="url(#pc8bfcbb456)" d="M 117 401.412166 
L 842.4 401.412166 
" style="fill:none;stroke:#b0b0b0;stroke-linecap:square;stroke-width:0.8;"/>
     </g>
     <g id="line2d_22">
      <g>
       <use style="stroke:#000000;stroke-width:0.8;" x="117" xlink:href="#mc39f72d142" y="401.412166"/>
      </g>
     </g>
     <g id="text_12">
      <!-- 100 -->
      <g transform="translate(90.9125 405.211385)scale(0.1 -0.1)">
       <use xlink:href="#DejaVuSans-49"/>
       <use x="63.623047" xlink:href="#DejaVuSans-48"/>
       <use x="127.246094" xlink:href="#DejaVuSans-48"/>
      </g>
     </g>
    </g>
    <g id="ytick_3">
     <g id="line2d_23">
      <path clip-path="url(#pc8bfcbb456)" d="M 117 312.119339 
L 842.4 312.119339 
" style="fill:none;stroke:#b0b0b0;stroke-linecap:square;stroke-width:0.8;"/>
     </g>
     <g id="line2d_24">
      <g>
       <use style="stroke:#000000;stroke-width:0.8;" x="117" xlink:href="#mc39f72d142" y="312.119339"/>
      </g>
     </g>
     <g id="text_13">
      <!-- 200 -->
      <g transform="translate(90.9125 315.918558)scale(0.1 -0.1)">
       <use xlink:href="#DejaVuSans-50"/>
       <use x="63.623047" xlink:href="#DejaVuSans-48"/>
       <use x="127.246094" xlink:href="#DejaVuSans-48"/>
      </g>
     </g>
    </g>
    <g id="ytick_4">
     <g id="line2d_25">
      <path clip-path="url(#pc8bfcbb456)" d="M 117 222.826513 
L 842.4 222.826513 
" style="fill:none;stroke:#b0b0b0;stroke-linecap:square;stroke-width:0.8;"/>
     </g>
     <g id="line2d_26">
      <g>
       <use style="stroke:#000000;stroke-width:0.8;" x="117" xlink:href="#mc39f72d142" y="222.826513"/>
      </g>
     </g>
     <g id="text_14">
      <!-- 300 -->
      <g transform="translate(90.9125 226.625732)scale(0.1 -0.1)">
       <defs>
        <path d="M 40.578125 39.3125 
Q 47.65625 37.796875 51.625 33 
Q 55.609375 28.21875 55.609375 21.1875 
Q 55.609375 10.40625 48.1875 4.484375 
Q 40.765625 -1.421875 27.09375 -1.421875 
Q 22.515625 -1.421875 17.65625 -0.515625 
Q 12.796875 0.390625 7.625 2.203125 
L 7.625 11.71875 
Q 11.71875 9.328125 16.59375 8.109375 
Q 21.484375 6.890625 26.8125 6.890625 
Q 36.078125 6.890625 40.9375 10.546875 
Q 45.796875 14.203125 45.796875 21.1875 
Q 45.796875 27.640625 41.28125 31.265625 
Q 36.765625 34.90625 28.71875 34.90625 
L 20.21875 34.90625 
L 20.21875 43.015625 
L 29.109375 43.015625 
Q 36.375 43.015625 40.234375 45.921875 
Q 44.09375 48.828125 44.09375 54.296875 
Q 44.09375 59.90625 40.109375 62.90625 
Q 36.140625 65.921875 28.71875 65.921875 
Q 24.65625 65.921875 20.015625 65.03125 
Q 15.375 64.15625 9.8125 62.3125 
L 9.8125 71.09375 
Q 15.4375 72.65625 20.34375 73.4375 
Q 25.25 74.21875 29.59375 74.21875 
Q 40.828125 74.21875 47.359375 69.109375 
Q 53.90625 64.015625 53.90625 55.328125 
Q 53.90625 49.265625 50.4375 45.09375 
Q 46.96875 40.921875 40.578125 39.3125 
z
" id="DejaVuSans-51"/>
       </defs>
       <use xlink:href="#DejaVuSans-51"/>
       <use x="63.623047" xlink:href="#DejaVuSans-48"/>
       <use x="127.246094" xlink:href="#DejaVuSans-48"/>
      </g>
     </g>
    </g>
    <g id="ytick_5">
     <g id="line2d_27">
      <path clip-path="url(#pc8bfcbb456)" d="M 117 133.533686 
L 842.4 133.533686 
" style="fill:none;stroke:#b0b0b0;stroke-linecap:square;stroke-width:0.8;"/>
     </g>
     <g id="line2d_28">
      <g>
       <use style="stroke:#000000;stroke-width:0.8;" x="117" xlink:href="#mc39f72d142" y="133.533686"/>
      </g>
     </g>
     <g id="text_15">
      <!-- 400 -->
      <g transform="translate(90.9125 137.332905)scale(0.1 -0.1)">
       <defs>
        <path d="M 37.796875 64.3125 
L 12.890625 25.390625 
L 37.796875 25.390625 
z
M 35.203125 72.90625 
L 47.609375 72.90625 
L 47.609375 25.390625 
L 58.015625 25.390625 
L 58.015625 17.1875 
L 47.609375 17.1875 
L 47.609375 0 
L 37.796875 0 
L 37.796875 17.1875 
L 4.890625 17.1875 
L 4.890625 26.703125 
z
" id="DejaVuSans-52"/>
       </defs>
       <use xlink:href="#DejaVuSans-52"/>
       <use x="63.623047" xlink:href="#DejaVuSans-48"/>
       <use x="127.246094" xlink:href="#DejaVuSans-48"/>
      </g>
     </g>
    </g>
    <g id="text_16">
     <!-- teach -->
     <g transform="translate(84.832812 300.57875)rotate(-90)scale(0.1 -0.1)">
      <defs>
       <path d="M 18.3125 70.21875 
L 18.3125 54.6875 
L 36.8125 54.6875 
L 36.8125 47.703125 
L 18.3125 47.703125 
L 18.3125 18.015625 
Q 18.3125 11.328125 20.140625 9.421875 
Q 21.96875 7.515625 27.59375 7.515625 
L 36.8125 7.515625 
L 36.8125 0 
L 27.59375 0 
Q 17.1875 0 13.234375 3.875 
Q 9.28125 7.765625 9.28125 18.015625 
L 9.28125 47.703125 
L 2.6875 47.703125 
L 2.6875 54.6875 
L 9.28125 54.6875 
L 9.28125 70.21875 
z
" id="DejaVuSans-116"/>
       <path d="M 56.203125 29.59375 
L 56.203125 25.203125 
L 14.890625 25.203125 
Q 15.484375 15.921875 20.484375 11.0625 
Q 25.484375 6.203125 34.421875 6.203125 
Q 39.59375 6.203125 44.453125 7.46875 
Q 49.3125 8.734375 54.109375 11.28125 
L 54.109375 2.78125 
Q 49.265625 0.734375 44.1875 -0.34375 
Q 39.109375 -1.421875 33.890625 -1.421875 
Q 20.796875 -1.421875 13.15625 6.1875 
Q 5.515625 13.8125 5.515625 26.8125 
Q 5.515625 40.234375 12.765625 48.109375 
Q 20.015625 56 32.328125 56 
Q 43.359375 56 49.78125 48.890625 
Q 56.203125 41.796875 56.203125 29.59375 
z
M 47.21875 32.234375 
Q 47.125 39.59375 43.09375 43.984375 
Q 39.0625 48.390625 32.421875 48.390625 
Q 24.90625 48.390625 20.390625 44.140625 
Q 15.875 39.890625 15.1875 32.171875 
z
" id="DejaVuSans-101"/>
       <path d="M 34.28125 27.484375 
Q 23.390625 27.484375 19.1875 25 
Q 14.984375 22.515625 14.984375 16.5 
Q 14.984375 11.71875 18.140625 8.90625 
Q 21.296875 6.109375 26.703125 6.109375 
Q 34.1875 6.109375 38.703125 11.40625 
Q 43.21875 16.703125 43.21875 25.484375 
L 43.21875 27.484375 
z
M 52.203125 31.203125 
L 52.203125 0 
L 43.21875 0 
L 43.21875 8.296875 
Q 40.140625 3.328125 35.546875 0.953125 
Q 30.953125 -1.421875 24.3125 -1.421875 
Q 15.921875 -1.421875 10.953125 3.296875 
Q 6 8.015625 6 15.921875 
Q 6 25.140625 12.171875 29.828125 
Q 18.359375 34.515625 30.609375 34.515625 
L 43.21875 34.515625 
L 43.21875 35.40625 
Q 43.21875 41.609375 39.140625 45 
Q 35.0625 48.390625 27.6875 48.390625 
Q 23 48.390625 18.546875 47.265625 
Q 14.109375 46.140625 10.015625 43.890625 
L 10.015625 52.203125 
Q 14.9375 54.109375 19.578125 55.046875 
Q 24.21875 56 28.609375 56 
Q 40.484375 56 46.34375 49.84375 
Q 52.203125 43.703125 52.203125 31.203125 
z
" id="DejaVuSans-97"/>
       <path d="M 48.78125 52.59375 
L 48.78125 44.1875 
Q 44.96875 46.296875 41.140625 47.34375 
Q 37.3125 48.390625 33.40625 48.390625 
Q 24.65625 48.390625 19.8125 42.84375 
Q 14.984375 37.3125 14.984375 27.296875 
Q 14.984375 17.28125 19.8125 11.734375 
Q 24.65625 6.203125 33.40625 6.203125 
Q 37.3125 6.203125 41.140625 7.25 
Q 44.96875 8.296875 48.78125 10.40625 
L 48.78125 2.09375 
Q 45.015625 0.34375 40.984375 -0.53125 
Q 36.96875 -1.421875 32.421875 -1.421875 
Q 20.0625 -1.421875 12.78125 6.34375 
Q 5.515625 14.109375 5.515625 27.296875 
Q 5.515625 40.671875 12.859375 48.328125 
Q 20.21875 56 33.015625 56 
Q 37.15625 56 41.109375 55.140625 
Q 45.0625 54.296875 48.78125 52.59375 
z
" id="DejaVuSans-99"/>
       <path d="M 54.890625 33.015625 
L 54.890625 0 
L 45.90625 0 
L 45.90625 32.71875 
Q 45.90625 40.484375 42.875 44.328125 
Q 39.84375 48.1875 33.796875 48.1875 
Q 26.515625 48.1875 22.3125 43.546875 
Q 18.109375 38.921875 18.109375 30.90625 
L 18.109375 0 
L 9.078125 0 
L 9.078125 75.984375 
L 18.109375 75.984375 
L 18.109375 46.1875 
Q 21.34375 51.125 25.703125 53.5625 
Q 30.078125 56 35.796875 56 
Q 45.21875 56 50.046875 50.171875 
Q 54.890625 44.34375 54.890625 33.015625 
z
" id="DejaVuSans-104"/>
      </defs>
      <use xlink:href="#DejaVuSans-116"/>
      <use x="39.208984" xlink:href="#DejaVuSans-101"/>
      <use x="100.732422" xlink:href="#DejaVuSans-97"/>
      <use x="162.011719" xlink:href="#DejaVuSans-99"/>
      <use x="216.992188" xlink:href="#DejaVuSans-104"/>
     </g>
    </g>
   </g>
   <g id="line2d_29">
    <path clip-path="url(#pc8bfcbb456)" d="M 117 88.887273 
L 124.327273 91.593116 
L 131.654545 94.298959 
L 138.981818 97.004802 
L 146.309091 99.710646 
L 153.636364 102.416489 
L 160.963636 105.122332 
L 168.290909 107.828175 
L 175.618182 110.534019 
L 182.945455 113.239862 
L 190.272727 115.945705 
L 197.6 118.651548 
L 204.927273 121.357392 
L 212.254545 124.063235 
L 219.581818 126.769078 
L 226.909091 129.474921 
L 234.236364 132.180764 
L 241.563636 134.886608 
L 248.890909 137.592451 
L 256.218182 140.298294 
L 263.545455 143.004137 
L 270.872727 145.709981 
L 278.2 148.415824 
L 285.527273 151.121667 
L 292.854545 153.82751 
L 300.181818 156.533354 
L 307.509091 159.239197 
L 314.836364 161.94504 
L 322.163636 164.650883 
L 329.490909 167.356727 
L 336.818182 170.06257 
L 344.145455 172.768413 
L 351.472727 175.474256 
L 358.8 178.180099 
L 366.127273 180.885943 
L 373.454545 183.591786 
L 380.781818 186.297629 
L 388.109091 189.003472 
L 395.436364 191.709316 
L 402.763636 194.415159 
L 410.090909 197.121002 
L 417.418182 199.826845 
L 424.745455 202.532689 
L 432.072727 205.238532 
L 439.4 207.944375 
L 446.727273 210.650218 
L 454.054545 213.356061 
L 461.381818 216.061905 
L 468.709091 218.767748 
L 476.036364 221.473591 
L 483.363636 224.179434 
L 490.690909 226.885278 
L 498.018182 229.591121 
L 505.345455 232.296964 
L 512.672727 235.002807 
L 520 237.708651 
L 527.327273 240.414494 
L 534.654545 243.120337 
L 541.981818 245.82618 
L 549.309091 248.532024 
L 556.636364 251.237867 
L 563.963636 253.94371 
L 571.290909 256.649553 
L 578.618182 259.355396 
L 585.945455 262.06124 
L 593.272727 264.767083 
L 600.6 267.472926 
L 607.927273 270.178769 
L 615.254545 272.884613 
L 622.581818 275.590456 
L 629.909091 278.296299 
L 637.236364 281.002142 
L 644.563636 283.707986 
L 651.890909 286.413829 
L 659.218182 289.119672 
L 666.545455 291.825515 
L 673.872727 294.531358 
L 681.2 297.237202 
L 688.527273 299.943045 
L 695.854545 302.648888 
L 703.181818 305.354731 
L 710.509091 308.060575 
L 717.836364 310.766418 
L 725.163636 313.472261 
L 732.490909 316.178104 
L 739.818182 318.883948 
L 747.145455 321.589791 
L 754.472727 324.295634 
L 761.8 327.001477 
L 769.127273 329.707321 
L 776.454545 332.413164 
L 783.781818 335.119007 
L 791.109091 337.82485 
L 798.436364 340.530693 
L 805.763636 343.236537 
L 813.090909 345.94238 
L 820.418182 348.648223 
L 827.745455 351.354066 
L 835.072727 354.05991 
L 842.4 356.765753 
" style="fill:none;stroke:#1f77b4;stroke-linecap:square;stroke-width:1.5;"/>
   </g>
   <g id="line2d_30">
    <path clip-path="url(#pc8bfcbb456)" d="M 117 190.593623 
L 124.327273 193.135133 
L 131.654545 195.676644 
L 138.981818 198.218155 
L 146.309091 200.759665 
L 153.636364 203.301176 
L 160.963636 205.842687 
L 168.290909 208.384197 
L 175.618182 210.925708 
L 182.945455 213.467219 
L 190.272727 216.00873 
L 197.6 218.55024 
L 204.927273 221.091751 
L 212.254545 223.633262 
L 219.581818 226.174772 
L 226.909091 228.716283 
L 234.236364 231.257794 
L 241.563636 233.799304 
L 248.890909 236.340815 
L 256.218182 238.882326 
L 263.545455 241.423837 
L 270.872727 243.965347 
L 278.2 246.506858 
L 285.527273 249.048369 
L 292.854545 251.589879 
L 300.181818 254.13139 
L 307.509091 256.672901 
L 314.836364 259.214411 
L 322.163636 261.755922 
L 329.490909 264.297433 
L 336.818182 266.838944 
L 344.145455 269.380454 
L 351.472727 271.921965 
L 358.8 274.463476 
L 366.127273 277.004986 
L 373.454545 279.546497 
L 380.781818 282.088008 
L 388.109091 284.629518 
L 395.436364 287.171029 
L 402.763636 289.71254 
L 410.090909 292.254051 
L 417.418182 294.795561 
L 424.745455 297.337072 
L 432.072727 299.878583 
L 439.4 302.420093 
L 446.727273 304.961604 
L 454.054545 307.503115 
L 461.381818 310.044626 
L 468.709091 312.586136 
L 476.036364 315.127647 
L 483.363636 317.669158 
L 490.690909 320.210668 
L 498.018182 322.752179 
L 505.345455 325.29369 
L 512.672727 327.8352 
L 520 330.376711 
L 527.327273 332.918222 
L 534.654545 335.459733 
L 541.981818 338.001243 
L 549.309091 340.542754 
L 556.636364 343.084265 
L 563.963636 345.625775 
L 571.290909 348.167286 
L 578.618182 350.708797 
L 585.945455 353.250307 
L 593.272727 355.791818 
L 600.6 358.333329 
L 607.927273 360.87484 
L 615.254545 363.41635 
L 622.581818 365.957861 
L 629.909091 368.499372 
L 637.236364 371.040882 
L 644.563636 373.582393 
L 651.890909 376.123904 
L 659.218182 378.665414 
L 666.545455 381.206925 
L 673.872727 383.748436 
L 681.2 386.289947 
L 688.527273 388.831457 
L 695.854545 391.372968 
L 703.181818 393.914479 
L 710.509091 396.455989 
L 717.836364 398.9975 
L 725.163636 401.539011 
L 732.490909 404.080521 
L 739.818182 406.622032 
L 747.145455 409.163543 
L 754.472727 411.705054 
L 761.8 414.246564 
L 769.127273 416.788075 
L 776.454545 419.329586 
L 783.781818 421.871096 
L 791.109091 424.412607 
L 798.436364 426.954118 
L 805.763636 429.495628 
L 813.090909 432.037139 
L 820.418182 434.57865 
L 827.745455 437.120161 
L 835.072727 439.661671 
L 842.4 442.203182 
" style="fill:none;stroke:#ff7f0e;stroke-linecap:square;stroke-width:1.5;"/>
   </g>
   <g id="line2d_31">
    <path clip-path="url(#pc8bfcbb456)" d="M 117 252.461923 
L 124.327273 254.712142 
L 131.654545 256.962361 
L 138.981818 259.21258 
L 146.309091 261.462798 
L 153.636364 263.713017 
L 160.963636 265.963236 
L 168.290909 268.213455 
L 175.618182 270.463673 
L 182.945455 272.713892 
L 190.272727 274.964111 
L 197.6 277.21433 
L 204.927273 279.464548 
L 212.254545 281.714767 
L 219.581818 283.964986 
L 226.909091 286.215205 
L 234.236364 288.465423 
L 241.563636 290.715642 
L 248.890909 292.965861 
L 256.218182 295.21608 
L 263.545455 297.466298 
L 270.872727 299.716517 
L 278.2 301.966736 
L 285.527273 304.216955 
L 292.854545 306.467173 
L 300.181818 308.717392 
L 307.509091 310.967611 
L 314.836364 313.21783 
L 322.163636 315.468048 
L 329.490909 317.718267 
L 336.818182 319.968486 
L 344.145455 322.218705 
L 351.472727 324.468923 
L 358.8 326.719142 
L 366.127273 328.969361 
L 373.454545 331.21958 
L 380.781818 333.469798 
L 388.109091 335.720017 
L 395.436364 337.970236 
L 402.763636 340.220455 
L 410.090909 342.470673 
L 417.418182 344.720892 
L 424.745455 346.971111 
L 432.072727 349.22133 
L 439.4 351.471548 
L 446.727273 353.721767 
L 454.054545 355.971986 
L 461.381818 358.222205 
L 468.709091 360.472423 
L 476.036364 362.722642 
L 483.363636 364.972861 
L 490.690909 367.22308 
L 498.018182 369.473298 
L 505.345455 371.723517 
L 512.672727 373.973736 
L 520 376.223955 
L 527.327273 378.474173 
L 534.654545 380.724392 
L 541.981818 382.974611 
L 549.309091 385.22483 
L 556.636364 387.475048 
L 563.963636 389.725267 
L 571.290909 391.975486 
L 578.618182 394.225705 
L 585.945455 396.475923 
L 593.272727 398.726142 
L 600.6 400.976361 
L 607.927273 403.22658 
L 615.254545 405.476798 
L 622.581818 407.727017 
L 629.909091 409.977236 
L 637.236364 412.227455 
L 644.563636 414.477673 
L 651.890909 416.727892 
L 659.218182 418.978111 
L 666.545455 421.22833 
L 673.872727 423.478548 
L 681.2 425.728767 
L 688.527273 427.978986 
L 695.854545 430.229205 
L 703.181818 432.479423 
L 710.509091 434.729642 
L 717.836364 436.979861 
L 725.163636 439.23008 
L 732.490909 441.480298 
L 739.818182 443.730517 
L 747.145455 445.980736 
L 754.472727 448.230955 
L 761.8 450.481173 
L 769.127273 452.731392 
L 776.454545 454.981611 
L 783.781818 457.23183 
L 791.109091 459.482048 
L 798.436364 461.732267 
L 805.763636 463.982486 
L 813.090909 466.232705 
L 820.418182 468.482923 
L 827.745455 470.733142 
L 835.072727 472.983361 
L 842.4 475.233579 
" style="fill:none;stroke:#2ca02c;stroke-linecap:square;stroke-width:1.5;"/>
   </g>
   <g id="line2d_32">
    <path clip-path="url(#pc8bfcbb456)" d="M 117 293.263995 
L 124.327273 295.192972 
L 131.654545 297.121949 
L 138.981818 299.050926 
L 146.309091 300.979903 
L 153.636364 302.908881 
L 160.963636 304.837858 
L 168.290909 306.766835 
L 175.618182 308.695812 
L 182.945455 310.624789 
L 190.272727 312.553766 
L 197.6 314.482743 
L 204.927273 316.41172 
L 212.254545 318.340697 
L 219.581818 320.269674 
L 226.909091 322.198651 
L 234.236364 324.127629 
L 241.563636 326.056606 
L 248.890909 327.985583 
L 256.218182 329.91456 
L 263.545455 331.843537 
L 270.872727 333.772514 
L 278.2 335.701491 
L 285.527273 337.630468 
L 292.854545 339.559445 
L 300.181818 341.488422 
L 307.509091 343.417399 
L 314.836364 345.346377 
L 322.163636 347.275354 
L 329.490909 349.204331 
L 336.818182 351.133308 
L 344.145455 353.062285 
L 351.472727 354.991262 
L 358.8 356.920239 
L 366.127273 358.849216 
L 373.454545 360.778193 
L 380.781818 362.70717 
L 388.109091 364.636147 
L 395.436364 366.565125 
L 402.763636 368.494102 
L 410.090909 370.423079 
L 417.418182 372.352056 
L 424.745455 374.281033 
L 432.072727 376.21001 
L 439.4 378.138987 
L 446.727273 380.067964 
L 454.054545 381.996941 
L 461.381818 383.925918 
L 468.709091 385.854896 
L 476.036364 387.783873 
L 483.363636 389.71285 
L 490.690909 391.641827 
L 498.018182 393.570804 
L 505.345455 395.499781 
L 512.672727 397.428758 
L 520 399.357735 
L 527.327273 401.286712 
L 534.654545 403.215689 
L 541.981818 405.144666 
L 549.309091 407.073644 
L 556.636364 409.002621 
L 563.963636 410.931598 
L 571.290909 412.860575 
L 578.618182 414.789552 
L 585.945455 416.718529 
L 593.272727 418.647506 
L 600.6 420.576483 
L 607.927273 422.50546 
L 615.254545 424.434437 
L 622.581818 426.363414 
L 629.909091 428.292392 
L 637.236364 430.221369 
L 644.563636 432.150346 
L 651.890909 434.079323 
L 659.218182 436.0083 
L 666.545455 437.937277 
L 673.872727 439.866254 
L 681.2 441.795231 
L 688.527273 443.724208 
L 695.854545 445.653185 
L 703.181818 447.582163 
L 710.509091 449.51114 
L 717.836364 451.440117 
L 725.163636 453.369094 
L 732.490909 455.298071 
L 739.818182 457.227048 
L 747.145455 459.156025 
L 754.472727 461.085002 
L 761.8 463.013979 
L 769.127273 464.942956 
L 776.454545 466.871933 
L 783.781818 468.800911 
L 791.109091 470.729888 
L 798.436364 472.658865 
L 805.763636 474.587842 
L 813.090909 476.516819 
L 820.418182 478.445796 
L 827.745455 480.374773 
L 835.072727 482.30375 
L 842.4 484.232727 
" style="fill:none;stroke:#d62728;stroke-linecap:square;stroke-width:1.5;"/>
   </g>
   <g id="line2d_33">
    <path clip-path="url(#pc8bfcbb456)" d="M 117 322.310709 
L 124.327273 323.930604 
L 131.654545 325.550499 
L 138.981818 327.170394 
L 146.309091 328.790289 
L 153.636364 330.410183 
L 160.963636 332.030078 
L 168.290909 333.649973 
L 175.618182 335.269868 
L 182.945455 336.889763 
L 190.272727 338.509658 
L 197.6 340.129553 
L 204.927273 341.749448 
L 212.254545 343.369343 
L 219.581818 344.989238 
L 226.909091 346.609133 
L 234.236364 348.229027 
L 241.563636 349.848922 
L 248.890909 351.468817 
L 256.218182 353.088712 
L 263.545455 354.708607 
L 270.872727 356.328502 
L 278.2 357.948397 
L 285.527273 359.568292 
L 292.854545 361.188187 
L 300.181818 362.808082 
L 307.509091 364.427977 
L 314.836364 366.047871 
L 322.163636 367.667766 
L 329.490909 369.287661 
L 336.818182 370.907556 
L 344.145455 372.527451 
L 351.472727 374.147346 
L 358.8 375.767241 
L 366.127273 377.387136 
L 373.454545 379.007031 
L 380.781818 380.626926 
L 388.109091 382.246821 
L 395.436364 383.866715 
L 402.763636 385.48661 
L 410.090909 387.106505 
L 417.418182 388.7264 
L 424.745455 390.346295 
L 432.072727 391.96619 
L 439.4 393.586085 
L 446.727273 395.20598 
L 454.054545 396.825875 
L 461.381818 398.44577 
L 468.709091 400.065665 
L 476.036364 401.685559 
L 483.363636 403.305454 
L 490.690909 404.925349 
L 498.018182 406.545244 
L 505.345455 408.165139 
L 512.672727 409.785034 
L 520 411.404929 
L 527.327273 413.024824 
L 534.654545 414.644719 
L 541.981818 416.264614 
L 549.309091 417.884509 
L 556.636364 419.504403 
L 563.963636 421.124298 
L 571.290909 422.744193 
L 578.618182 424.364088 
L 585.945455 425.983983 
L 593.272727 427.603878 
L 600.6 429.223773 
L 607.927273 430.843668 
L 615.254545 432.463563 
L 622.581818 434.083458 
L 629.909091 435.703353 
L 637.236364 437.323248 
L 644.563636 438.943142 
L 651.890909 440.563037 
L 659.218182 442.182932 
L 666.545455 443.802827 
L 673.872727 445.422722 
L 681.2 447.042617 
L 688.527273 448.662512 
L 695.854545 450.282407 
L 703.181818 451.902302 
L 710.509091 453.522197 
L 717.836364 455.142092 
L 725.163636 456.761986 
L 732.490909 458.381881 
L 739.818182 460.001776 
L 747.145455 461.621671 
L 754.472727 463.241566 
L 761.8 464.861461 
L 769.127273 466.481356 
L 776.454545 468.101251 
L 783.781818 469.721146 
L 791.109091 471.341041 
L 798.436364 472.960936 
L 805.763636 474.58083 
L 813.090909 476.200725 
L 820.418182 477.82062 
L 827.745455 479.440515 
L 835.072727 481.06041 
L 842.4 482.680305 
" style="fill:none;stroke:#9467bd;stroke-linecap:square;stroke-width:1.5;"/>
   </g>
   <g id="line2d_34">
    <path clip-path="url(#pc8bfcbb456)" d="M 117 344.319741 
L 124.327273 345.659076 
L 131.654545 346.998411 
L 138.981818 348.337746 
L 146.309091 349.677082 
L 153.636364 351.016417 
L 160.963636 352.355752 
L 168.290909 353.695087 
L 175.618182 355.034422 
L 182.945455 356.373758 
L 190.272727 357.713093 
L 197.6 359.052428 
L 204.927273 360.391763 
L 212.254545 361.731098 
L 219.581818 363.070434 
L 226.909091 364.409769 
L 234.236364 365.749104 
L 241.563636 367.088439 
L 248.890909 368.427774 
L 256.218182 369.76711 
L 263.545455 371.106445 
L 270.872727 372.44578 
L 278.2 373.785115 
L 285.527273 375.124451 
L 292.854545 376.463786 
L 300.181818 377.803121 
L 307.509091 379.142456 
L 314.836364 380.481791 
L 322.163636 381.821127 
L 329.490909 383.160462 
L 336.818182 384.499797 
L 344.145455 385.839132 
L 351.472727 387.178467 
L 358.8 388.517803 
L 366.127273 389.857138 
L 373.454545 391.196473 
L 380.781818 392.535808 
L 388.109091 393.875143 
L 395.436364 395.214479 
L 402.763636 396.553814 
L 410.090909 397.893149 
L 417.418182 399.232484 
L 424.745455 400.571819 
L 432.072727 401.911155 
L 439.4 403.25049 
L 446.727273 404.589825 
L 454.054545 405.92916 
L 461.381818 407.268495 
L 468.709091 408.607831 
L 476.036364 409.947166 
L 483.363636 411.286501 
L 490.690909 412.625836 
L 498.018182 413.965171 
L 505.345455 415.304507 
L 512.672727 416.643842 
L 520 417.983177 
L 527.327273 419.322512 
L 534.654545 420.661847 
L 541.981818 422.001183 
L 549.309091 423.340518 
L 556.636364 424.679853 
L 563.963636 426.019188 
L 571.290909 427.358523 
L 578.618182 428.697859 
L 585.945455 430.037194 
L 593.272727 431.376529 
L 600.6 432.715864 
L 607.927273 434.055199 
L 615.254545 435.394535 
L 622.581818 436.73387 
L 629.909091 438.073205 
L 637.236364 439.41254 
L 644.563636 440.751875 
L 651.890909 442.091211 
L 659.218182 443.430546 
L 666.545455 444.769881 
L 673.872727 446.109216 
L 681.2 447.448552 
L 688.527273 448.787887 
L 695.854545 450.127222 
L 703.181818 451.466557 
L 710.509091 452.805892 
L 717.836364 454.145228 
L 725.163636 455.484563 
L 732.490909 456.823898 
L 739.818182 458.163233 
L 747.145455 459.502568 
L 754.472727 460.841904 
L 761.8 462.181239 
L 769.127273 463.520574 
L 776.454545 464.859909 
L 783.781818 466.199244 
L 791.109091 467.53858 
L 798.436364 468.877915 
L 805.763636 470.21725 
L 813.090909 471.556585 
L 820.418182 472.89592 
L 827.745455 474.235256 
L 835.072727 475.574591 
L 842.4 476.913926 
" style="fill:none;stroke:#8c564b;stroke-linecap:square;stroke-width:1.5;"/>
   </g>
   <g id="line2d_35">
    <path clip-path="url(#pc8bfcbb456)" d="M 117 361.763793 
L 124.327273 362.855637 
L 131.654545 363.947482 
L 138.981818 365.039327 
L 146.309091 366.131172 
L 153.636364 367.223016 
L 160.963636 368.314861 
L 168.290909 369.406706 
L 175.618182 370.49855 
L 182.945455 371.590395 
L 190.272727 372.68224 
L 197.6 373.774085 
L 204.927273 374.865929 
L 212.254545 375.957774 
L 219.581818 377.049619 
L 226.909091 378.141463 
L 234.236364 379.233308 
L 241.563636 380.325153 
L 248.890909 381.416998 
L 256.218182 382.508842 
L 263.545455 383.600687 
L 270.872727 384.692532 
L 278.2 385.784376 
L 285.527273 386.876221 
L 292.854545 387.968066 
L 300.181818 389.059911 
L 307.509091 390.151755 
L 314.836364 391.2436 
L 322.163636 392.335445 
L 329.490909 393.427289 
L 336.818182 394.519134 
L 344.145455 395.610979 
L 351.472727 396.702824 
L 358.8 397.794668 
L 366.127273 398.886513 
L 373.454545 399.978358 
L 380.781818 401.070202 
L 388.109091 402.162047 
L 395.436364 403.253892 
L 402.763636 404.345737 
L 410.090909 405.437581 
L 417.418182 406.529426 
L 424.745455 407.621271 
L 432.072727 408.713115 
L 439.4 409.80496 
L 446.727273 410.896805 
L 454.054545 411.98865 
L 461.381818 413.080494 
L 468.709091 414.172339 
L 476.036364 415.264184 
L 483.363636 416.356028 
L 490.690909 417.447873 
L 498.018182 418.539718 
L 505.345455 419.631563 
L 512.672727 420.723407 
L 520 421.815252 
L 527.327273 422.907097 
L 534.654545 423.998941 
L 541.981818 425.090786 
L 549.309091 426.182631 
L 556.636364 427.274476 
L 563.963636 428.36632 
L 571.290909 429.458165 
L 578.618182 430.55001 
L 585.945455 431.641854 
L 593.272727 432.733699 
L 600.6 433.825544 
L 607.927273 434.917389 
L 615.254545 436.009233 
L 622.581818 437.101078 
L 629.909091 438.192923 
L 637.236364 439.284767 
L 644.563636 440.376612 
L 651.890909 441.468457 
L 659.218182 442.560302 
L 666.545455 443.652146 
L 673.872727 444.743991 
L 681.2 445.835836 
L 688.527273 446.92768 
L 695.854545 448.019525 
L 703.181818 449.11137 
L 710.509091 450.203215 
L 717.836364 451.295059 
L 725.163636 452.386904 
L 732.490909 453.478749 
L 739.818182 454.570593 
L 747.145455 455.662438 
L 754.472727 456.754283 
L 761.8 457.846128 
L 769.127273 458.937972 
L 776.454545 460.029817 
L 783.781818 461.121662 
L 791.109091 462.213506 
L 798.436364 463.305351 
L 805.763636 464.397196 
L 813.090909 465.489041 
L 820.418182 466.580885 
L 827.745455 467.67273 
L 835.072727 468.764575 
L 842.4 469.856419 
" style="fill:none;stroke:#e377c2;stroke-linecap:square;stroke-width:1.5;"/>
   </g>
   <g id="line2d_36">
    <path clip-path="url(#pc8bfcbb456)" d="M 117 376.005606 
L 124.327273 376.882379 
L 131.654545 377.759151 
L 138.981818 378.635924 
L 146.309091 379.512697 
L 153.636364 380.389469 
L 160.963636 381.266242 
L 168.290909 382.143015 
L 175.618182 383.019787 
L 182.945455 383.89656 
L 190.272727 384.773333 
L 197.6 385.650105 
L 204.927273 386.526878 
L 212.254545 387.403651 
L 219.581818 388.280423 
L 226.909091 389.157196 
L 234.236364 390.033969 
L 241.563636 390.910741 
L 248.890909 391.787514 
L 256.218182 392.664287 
L 263.545455 393.541059 
L 270.872727 394.417832 
L 278.2 395.294604 
L 285.527273 396.171377 
L 292.854545 397.04815 
L 300.181818 397.924922 
L 307.509091 398.801695 
L 314.836364 399.678468 
L 322.163636 400.55524 
L 329.490909 401.432013 
L 336.818182 402.308786 
L 344.145455 403.185558 
L 351.472727 404.062331 
L 358.8 404.939104 
L 366.127273 405.815876 
L 373.454545 406.692649 
L 380.781818 407.569422 
L 388.109091 408.446194 
L 395.436364 409.322967 
L 402.763636 410.19974 
L 410.090909 411.076512 
L 417.418182 411.953285 
L 424.745455 412.830058 
L 432.072727 413.70683 
L 439.4 414.583603 
L 446.727273 415.460376 
L 454.054545 416.337148 
L 461.381818 417.213921 
L 468.709091 418.090694 
L 476.036364 418.967466 
L 483.363636 419.844239 
L 490.690909 420.721011 
L 498.018182 421.597784 
L 505.345455 422.474557 
L 512.672727 423.351329 
L 520 424.228102 
L 527.327273 425.104875 
L 534.654545 425.981647 
L 541.981818 426.85842 
L 549.309091 427.735193 
L 556.636364 428.611965 
L 563.963636 429.488738 
L 571.290909 430.365511 
L 578.618182 431.242283 
L 585.945455 432.119056 
L 593.272727 432.995829 
L 600.6 433.872601 
L 607.927273 434.749374 
L 615.254545 435.626147 
L 622.581818 436.502919 
L 629.909091 437.379692 
L 637.236364 438.256465 
L 644.563636 439.133237 
L 651.890909 440.01001 
L 659.218182 440.886783 
L 666.545455 441.763555 
L 673.872727 442.640328 
L 681.2 443.517101 
L 688.527273 444.393873 
L 695.854545 445.270646 
L 703.181818 446.147418 
L 710.509091 447.024191 
L 717.836364 447.900964 
L 725.163636 448.777736 
L 732.490909 449.654509 
L 739.818182 450.531282 
L 747.145455 451.408054 
L 754.472727 452.284827 
L 761.8 453.1616 
L 769.127273 454.038372 
L 776.454545 454.915145 
L 783.781818 455.791918 
L 791.109091 456.66869 
L 798.436364 457.545463 
L 805.763636 458.422236 
L 813.090909 459.299008 
L 820.418182 460.175781 
L 827.745455 461.052554 
L 835.072727 461.929326 
L 842.4 462.806099 
" style="fill:none;stroke:#7f7f7f;stroke-linecap:square;stroke-width:1.5;"/>
   </g>
   <g id="line2d_37">
    <path clip-path="url(#pc8bfcbb456)" d="M 117 387.848464 
L 124.327273 388.539847 
L 131.654545 389.231231 
L 138.981818 389.922615 
L 146.309091 390.613999 
L 153.636364 391.305383 
L 160.963636 391.996767 
L 168.290909 392.68815 
L 175.618182 393.379534 
L 182.945455 394.070918 
L 190.272727 394.762302 
L 197.6 395.453686 
L 204.927273 396.14507 
L 212.254545 396.836453 
L 219.581818 397.527837 
L 226.909091 398.219221 
L 234.236364 398.910605 
L 241.563636 399.601989 
L 248.890909 400.293373 
L 256.218182 400.984757 
L 263.545455 401.67614 
L 270.872727 402.367524 
L 278.2 403.058908 
L 285.527273 403.750292 
L 292.854545 404.441676 
L 300.181818 405.13306 
L 307.509091 405.824443 
L 314.836364 406.515827 
L 322.163636 407.207211 
L 329.490909 407.898595 
L 336.818182 408.589979 
L 344.145455 409.281363 
L 351.472727 409.972747 
L 358.8 410.66413 
L 366.127273 411.355514 
L 373.454545 412.046898 
L 380.781818 412.738282 
L 388.109091 413.429666 
L 395.436364 414.12105 
L 402.763636 414.812433 
L 410.090909 415.503817 
L 417.418182 416.195201 
L 424.745455 416.886585 
L 432.072727 417.577969 
L 439.4 418.269353 
L 446.727273 418.960737 
L 454.054545 419.65212 
L 461.381818 420.343504 
L 468.709091 421.034888 
L 476.036364 421.726272 
L 483.363636 422.417656 
L 490.690909 423.10904 
L 498.018182 423.800423 
L 505.345455 424.491807 
L 512.672727 425.183191 
L 520 425.874575 
L 527.327273 426.565959 
L 534.654545 427.257343 
L 541.981818 427.948727 
L 549.309091 428.64011 
L 556.636364 429.331494 
L 563.963636 430.022878 
L 571.290909 430.714262 
L 578.618182 431.405646 
L 585.945455 432.09703 
L 593.272727 432.788413 
L 600.6 433.479797 
L 607.927273 434.171181 
L 615.254545 434.862565 
L 622.581818 435.553949 
L 629.909091 436.245333 
L 637.236364 436.936717 
L 644.563636 437.6281 
L 651.890909 438.319484 
L 659.218182 439.010868 
L 666.545455 439.702252 
L 673.872727 440.393636 
L 681.2 441.08502 
L 688.527273 441.776403 
L 695.854545 442.467787 
L 703.181818 443.159171 
L 710.509091 443.850555 
L 717.836364 444.541939 
L 725.163636 445.233323 
L 732.490909 445.924707 
L 739.818182 446.61609 
L 747.145455 447.307474 
L 754.472727 447.998858 
L 761.8 448.690242 
L 769.127273 449.381626 
L 776.454545 450.07301 
L 783.781818 450.764393 
L 791.109091 451.455777 
L 798.436364 452.147161 
L 805.763636 452.838545 
L 813.090909 453.529929 
L 820.418182 454.221313 
L 827.745455 454.912696 
L 835.072727 455.60408 
L 842.4 456.295464 
" style="fill:none;stroke:#bcbd22;stroke-linecap:square;stroke-width:1.5;"/>
   </g>
   <g id="line2d_38">
    <path clip-path="url(#pc8bfcbb456)" d="M 117 397.804798 
L 124.327273 398.337094 
L 131.654545 398.869389 
L 138.981818 399.401685 
L 146.309091 399.93398 
L 153.636364 400.466276 
L 160.963636 400.998571 
L 168.290909 401.530867 
L 175.618182 402.063162 
L 182.945455 402.595458 
L 190.272727 403.127753 
L 197.6 403.660049 
L 204.927273 404.192345 
L 212.254545 404.72464 
L 219.581818 405.256936 
L 226.909091 405.789231 
L 234.236364 406.321527 
L 241.563636 406.853822 
L 248.890909 407.386118 
L 256.218182 407.918413 
L 263.545455 408.450709 
L 270.872727 408.983004 
L 278.2 409.5153 
L 285.527273 410.047596 
L 292.854545 410.579891 
L 300.181818 411.112187 
L 307.509091 411.644482 
L 314.836364 412.176778 
L 322.163636 412.709073 
L 329.490909 413.241369 
L 336.818182 413.773664 
L 344.145455 414.30596 
L 351.472727 414.838255 
L 358.8 415.370551 
L 366.127273 415.902847 
L 373.454545 416.435142 
L 380.781818 416.967438 
L 388.109091 417.499733 
L 395.436364 418.032029 
L 402.763636 418.564324 
L 410.090909 419.09662 
L 417.418182 419.628915 
L 424.745455 420.161211 
L 432.072727 420.693506 
L 439.4 421.225802 
L 446.727273 421.758097 
L 454.054545 422.290393 
L 461.381818 422.822689 
L 468.709091 423.354984 
L 476.036364 423.88728 
L 483.363636 424.419575 
L 490.690909 424.951871 
L 498.018182 425.484166 
L 505.345455 426.016462 
L 512.672727 426.548757 
L 520 427.081053 
L 527.327273 427.613348 
L 534.654545 428.145644 
L 541.981818 428.67794 
L 549.309091 429.210235 
L 556.636364 429.742531 
L 563.963636 430.274826 
L 571.290909 430.807122 
L 578.618182 431.339417 
L 585.945455 431.871713 
L 593.272727 432.404008 
L 600.6 432.936304 
L 607.927273 433.468599 
L 615.254545 434.000895 
L 622.581818 434.533191 
L 629.909091 435.065486 
L 637.236364 435.597782 
L 644.563636 436.130077 
L 651.890909 436.662373 
L 659.218182 437.194668 
L 666.545455 437.726964 
L 673.872727 438.259259 
L 681.2 438.791555 
L 688.527273 439.32385 
L 695.854545 439.856146 
L 703.181818 440.388442 
L 710.509091 440.920737 
L 717.836364 441.453033 
L 725.163636 441.985328 
L 732.490909 442.517624 
L 739.818182 443.049919 
L 747.145455 443.582215 
L 754.472727 444.11451 
L 761.8 444.646806 
L 769.127273 445.179101 
L 776.454545 445.711397 
L 783.781818 446.243692 
L 791.109091 446.775988 
L 798.436364 447.308284 
L 805.763636 447.840579 
L 813.090909 448.372875 
L 820.418182 448.90517 
L 827.745455 449.437466 
L 835.072727 449.969761 
L 842.4 450.502057 
" style="fill:none;stroke:#17becf;stroke-linecap:square;stroke-width:1.5;"/>
   </g>
   <g id="line2d_39">
    <path clip-path="url(#pc8bfcbb456)" d="M 117 406.228618 
L 124.327273 406.624735 
L 131.654545 407.020851 
L 138.981818 407.416968 
L 146.309091 407.813085 
L 153.636364 408.209201 
L 160.963636 408.605318 
L 168.290909 409.001435 
L 175.618182 409.397551 
L 182.945455 409.793668 
L 190.272727 410.189785 
L 197.6 410.585901 
L 204.927273 410.982018 
L 212.254545 411.378135 
L 219.581818 411.774251 
L 226.909091 412.170368 
L 234.236364 412.566485 
L 241.563636 412.962601 
L 248.890909 413.358718 
L 256.218182 413.754835 
L 263.545455 414.150951 
L 270.872727 414.547068 
L 278.2 414.943185 
L 285.527273 415.339301 
L 292.854545 415.735418 
L 300.181818 416.131535 
L 307.509091 416.527651 
L 314.836364 416.923768 
L 322.163636 417.319885 
L 329.490909 417.716001 
L 336.818182 418.112118 
L 344.145455 418.508235 
L 351.472727 418.904351 
L 358.8 419.300468 
L 366.127273 419.696585 
L 373.454545 420.092701 
L 380.781818 420.488818 
L 388.109091 420.884935 
L 395.436364 421.281051 
L 402.763636 421.677168 
L 410.090909 422.073285 
L 417.418182 422.469401 
L 424.745455 422.865518 
L 432.072727 423.261635 
L 439.4 423.657751 
L 446.727273 424.053868 
L 454.054545 424.449985 
L 461.381818 424.846101 
L 468.709091 425.242218 
L 476.036364 425.638335 
L 483.363636 426.034451 
L 490.690909 426.430568 
L 498.018182 426.826685 
L 505.345455 427.222801 
L 512.672727 427.618918 
L 520 428.015035 
L 527.327273 428.411151 
L 534.654545 428.807268 
L 541.981818 429.203385 
L 549.309091 429.599501 
L 556.636364 429.995618 
L 563.963636 430.391735 
L 571.290909 430.787851 
L 578.618182 431.183968 
L 585.945455 431.580085 
L 593.272727 431.976201 
L 600.6 432.372318 
L 607.927273 432.768435 
L 615.254545 433.164551 
L 622.581818 433.560668 
L 629.909091 433.956785 
L 637.236364 434.352901 
L 644.563636 434.749018 
L 651.890909 435.145135 
L 659.218182 435.541251 
L 666.545455 435.937368 
L 673.872727 436.333485 
L 681.2 436.729601 
L 688.527273 437.125718 
L 695.854545 437.521835 
L 703.181818 437.917951 
L 710.509091 438.314068 
L 717.836364 438.710185 
L 725.163636 439.106301 
L 732.490909 439.502418 
L 739.818182 439.898535 
L 747.145455 440.294651 
L 754.472727 440.690768 
L 761.8 441.086885 
L 769.127273 441.483001 
L 776.454545 441.879118 
L 783.781818 442.275235 
L 791.109091 442.671351 
L 798.436364 443.067468 
L 805.763636 443.463585 
L 813.090909 443.859701 
L 820.418182 444.255818 
L 827.745455 444.651935 
L 835.072727 445.048051 
L 842.4 445.444168 
" style="fill:none;stroke:#1f77b4;stroke-linecap:square;stroke-width:1.5;"/>
   </g>
   <g id="patch_3">
    <path d="M 117 504 
L 117 69.12 
" style="fill:none;stroke:#000000;stroke-linecap:square;stroke-linejoin:miter;stroke-width:0.8;"/>
   </g>
   <g id="patch_4">
    <path d="M 842.4 504 
L 842.4 69.12 
" style="fill:none;stroke:#000000;stroke-linecap:square;stroke-linejoin:miter;stroke-width:0.8;"/>
   </g>
   <g id="patch_5">
    <path d="M 117 504 
L 842.4 504 
" style="fill:none;stroke:#000000;stroke-linecap:square;stroke-linejoin:miter;stroke-width:0.8;"/>
   </g>
   <g id="patch_6">
    <path d="M 117 69.12 
L 842.4 69.12 
" style="fill:none;stroke:#000000;stroke-linecap:square;stroke-linejoin:miter;stroke-width:0.8;"/>
   </g>
   <g id="legend_1">
    <g id="patch_7">
     <path d="M 653.924375 293.394375 
L 833.3 293.394375 
Q 835.9 293.394375 835.9 290.794375 
L 835.9 78.22 
Q 835.9 75.62 833.3 75.62 
L 653.924375 75.62 
Q 651.324375 75.62 651.324375 78.22 
L 651.324375 290.794375 
Q 651.324375 293.394375 653.924375 293.394375 
z
" style="fill:#ffffff;opacity:0.8;stroke:#cccccc;stroke-linejoin:miter;"/>
    </g>
    <g id="line2d_40">
     <path d="M 656.524375 86.147969 
L 682.524375 86.147969 
" style="fill:none;stroke:#1f77b4;stroke-linecap:square;stroke-width:1.5;"/>
    </g>
    <g id="line2d_41"/>
    <g id="text_17">
     <!-- weinghts_hisotiry: 0 -->
     <g transform="translate(692.924375 90.697969)scale(0.13 -0.13)">
      <defs>
       <path d="M 4.203125 54.6875 
L 13.1875 54.6875 
L 24.421875 12.015625 
L 35.59375 54.6875 
L 46.1875 54.6875 
L 57.421875 12.015625 
L 68.609375 54.6875 
L 77.59375 54.6875 
L 63.28125 0 
L 52.6875 0 
L 40.921875 44.828125 
L 29.109375 0 
L 18.5 0 
z
" id="DejaVuSans-119"/>
       <path d="M 9.421875 54.6875 
L 18.40625 54.6875 
L 18.40625 0 
L 9.421875 0 
z
M 9.421875 75.984375 
L 18.40625 75.984375 
L 18.40625 64.59375 
L 9.421875 64.59375 
z
" id="DejaVuSans-105"/>
       <path d="M 54.890625 33.015625 
L 54.890625 0 
L 45.90625 0 
L 45.90625 32.71875 
Q 45.90625 40.484375 42.875 44.328125 
Q 39.84375 48.1875 33.796875 48.1875 
Q 26.515625 48.1875 22.3125 43.546875 
Q 18.109375 38.921875 18.109375 30.90625 
L 18.109375 0 
L 9.078125 0 
L 9.078125 54.6875 
L 18.109375 54.6875 
L 18.109375 46.1875 
Q 21.34375 51.125 25.703125 53.5625 
Q 30.078125 56 35.796875 56 
Q 45.21875 56 50.046875 50.171875 
Q 54.890625 44.34375 54.890625 33.015625 
z
" id="DejaVuSans-110"/>
       <path d="M 45.40625 27.984375 
Q 45.40625 37.75 41.375 43.109375 
Q 37.359375 48.484375 30.078125 48.484375 
Q 22.859375 48.484375 18.828125 43.109375 
Q 14.796875 37.75 14.796875 27.984375 
Q 14.796875 18.265625 18.828125 12.890625 
Q 22.859375 7.515625 30.078125 7.515625 
Q 37.359375 7.515625 41.375 12.890625 
Q 45.40625 18.265625 45.40625 27.984375 
z
M 54.390625 6.78125 
Q 54.390625 -7.171875 48.1875 -13.984375 
Q 42 -20.796875 29.203125 -20.796875 
Q 24.46875 -20.796875 20.265625 -20.09375 
Q 16.0625 -19.390625 12.109375 -17.921875 
L 12.109375 -9.1875 
Q 16.0625 -11.328125 19.921875 -12.34375 
Q 23.78125 -13.375 27.78125 -13.375 
Q 36.625 -13.375 41.015625 -8.765625 
Q 45.40625 -4.15625 45.40625 5.171875 
L 45.40625 9.625 
Q 42.625 4.78125 38.28125 2.390625 
Q 33.9375 0 27.875 0 
Q 17.828125 0 11.671875 7.65625 
Q 5.515625 15.328125 5.515625 27.984375 
Q 5.515625 40.671875 11.671875 48.328125 
Q 17.828125 56 27.875 56 
Q 33.9375 56 38.28125 53.609375 
Q 42.625 51.21875 45.40625 46.390625 
L 45.40625 54.6875 
L 54.390625 54.6875 
z
" id="DejaVuSans-103"/>
       <path d="M 44.28125 53.078125 
L 44.28125 44.578125 
Q 40.484375 46.53125 36.375 47.5 
Q 32.28125 48.484375 27.875 48.484375 
Q 21.1875 48.484375 17.84375 46.4375 
Q 14.5 44.390625 14.5 40.28125 
Q 14.5 37.15625 16.890625 35.375 
Q 19.28125 33.59375 26.515625 31.984375 
L 29.59375 31.296875 
Q 39.15625 29.25 43.1875 25.515625 
Q 47.21875 21.78125 47.21875 15.09375 
Q 47.21875 7.46875 41.1875 3.015625 
Q 35.15625 -1.421875 24.609375 -1.421875 
Q 20.21875 -1.421875 15.453125 -0.5625 
Q 10.6875 0.296875 5.421875 2 
L 5.421875 11.28125 
Q 10.40625 8.6875 15.234375 7.390625 
Q 20.0625 6.109375 24.8125 6.109375 
Q 31.15625 6.109375 34.5625 8.28125 
Q 37.984375 10.453125 37.984375 14.40625 
Q 37.984375 18.0625 35.515625 20.015625 
Q 33.0625 21.96875 24.703125 23.78125 
L 21.578125 24.515625 
Q 13.234375 26.265625 9.515625 29.90625 
Q 5.8125 33.546875 5.8125 39.890625 
Q 5.8125 47.609375 11.28125 51.796875 
Q 16.75 56 26.8125 56 
Q 31.78125 56 36.171875 55.265625 
Q 40.578125 54.546875 44.28125 53.078125 
z
" id="DejaVuSans-115"/>
       <path d="M 50.984375 -16.609375 
L 50.984375 -23.578125 
L -0.984375 -23.578125 
L -0.984375 -16.609375 
z
" id="DejaVuSans-95"/>
       <path d="M 30.609375 48.390625 
Q 23.390625 48.390625 19.1875 42.75 
Q 14.984375 37.109375 14.984375 27.296875 
Q 14.984375 17.484375 19.15625 11.84375 
Q 23.34375 6.203125 30.609375 6.203125 
Q 37.796875 6.203125 41.984375 11.859375 
Q 46.1875 17.53125 46.1875 27.296875 
Q 46.1875 37.015625 41.984375 42.703125 
Q 37.796875 48.390625 30.609375 48.390625 
z
M 30.609375 56 
Q 42.328125 56 49.015625 48.375 
Q 55.71875 40.765625 55.71875 27.296875 
Q 55.71875 13.875 49.015625 6.21875 
Q 42.328125 -1.421875 30.609375 -1.421875 
Q 18.84375 -1.421875 12.171875 6.21875 
Q 5.515625 13.875 5.515625 27.296875 
Q 5.515625 40.765625 12.171875 48.375 
Q 18.84375 56 30.609375 56 
z
" id="DejaVuSans-111"/>
       <path d="M 41.109375 46.296875 
Q 39.59375 47.171875 37.8125 47.578125 
Q 36.03125 48 33.890625 48 
Q 26.265625 48 22.1875 43.046875 
Q 18.109375 38.09375 18.109375 28.8125 
L 18.109375 0 
L 9.078125 0 
L 9.078125 54.6875 
L 18.109375 54.6875 
L 18.109375 46.1875 
Q 20.953125 51.171875 25.484375 53.578125 
Q 30.03125 56 36.53125 56 
Q 37.453125 56 38.578125 55.875 
Q 39.703125 55.765625 41.0625 55.515625 
z
" id="DejaVuSans-114"/>
       <path d="M 32.171875 -5.078125 
Q 28.375 -14.84375 24.75 -17.8125 
Q 21.140625 -20.796875 15.09375 -20.796875 
L 7.90625 -20.796875 
L 7.90625 -13.28125 
L 13.1875 -13.28125 
Q 16.890625 -13.28125 18.9375 -11.515625 
Q 21 -9.765625 23.484375 -3.21875 
L 25.09375 0.875 
L 2.984375 54.6875 
L 12.5 54.6875 
L 29.59375 11.921875 
L 46.6875 54.6875 
L 56.203125 54.6875 
z
" id="DejaVuSans-121"/>
       <path d="M 11.71875 12.40625 
L 22.015625 12.40625 
L 22.015625 0 
L 11.71875 0 
z
M 11.71875 51.703125 
L 22.015625 51.703125 
L 22.015625 39.3125 
L 11.71875 39.3125 
z
" id="DejaVuSans-58"/>
       <path id="DejaVuSans-32"/>
      </defs>
      <use xlink:href="#DejaVuSans-119"/>
      <use x="81.787109" xlink:href="#DejaVuSans-101"/>
      <use x="143.310547" xlink:href="#DejaVuSans-105"/>
      <use x="171.09375" xlink:href="#DejaVuSans-110"/>
      <use x="234.472656" xlink:href="#DejaVuSans-103"/>
      <use x="297.949219" xlink:href="#DejaVuSans-104"/>
      <use x="361.328125" xlink:href="#DejaVuSans-116"/>
      <use x="400.537109" xlink:href="#DejaVuSans-115"/>
      <use x="452.636719" xlink:href="#DejaVuSans-95"/>
      <use x="502.636719" xlink:href="#DejaVuSans-104"/>
      <use x="566.015625" xlink:href="#DejaVuSans-105"/>
      <use x="593.798828" xlink:href="#DejaVuSans-115"/>
      <use x="645.898438" xlink:href="#DejaVuSans-111"/>
      <use x="707.080078" xlink:href="#DejaVuSans-116"/>
      <use x="746.289062" xlink:href="#DejaVuSans-105"/>
      <use x="774.072266" xlink:href="#DejaVuSans-114"/>
      <use x="815.185547" xlink:href="#DejaVuSans-121"/>
      <use x="867.115234" xlink:href="#DejaVuSans-58"/>
      <use x="900.806641" xlink:href="#DejaVuSans-32"/>
      <use x="932.59375" xlink:href="#DejaVuSans-48"/>
     </g>
    </g>
    <g id="line2d_42">
     <path d="M 656.524375 105.591094 
L 682.524375 105.591094 
" style="fill:none;stroke:#ff7f0e;stroke-linecap:square;stroke-width:1.5;"/>
    </g>
    <g id="line2d_43"/>
    <g id="text_18">
     <!-- weinghts_hisotiry: 1 -->
     <g transform="translate(692.924375 110.141094)scale(0.13 -0.13)">
      <use xlink:href="#DejaVuSans-119"/>
      <use x="81.787109" xlink:href="#DejaVuSans-101"/>
      <use x="143.310547" xlink:href="#DejaVuSans-105"/>
      <use x="171.09375" xlink:href="#DejaVuSans-110"/>
      <use x="234.472656" xlink:href="#DejaVuSans-103"/>
      <use x="297.949219" xlink:href="#DejaVuSans-104"/>
      <use x="361.328125" xlink:href="#DejaVuSans-116"/>
      <use x="400.537109" xlink:href="#DejaVuSans-115"/>
      <use x="452.636719" xlink:href="#DejaVuSans-95"/>
      <use x="502.636719" xlink:href="#DejaVuSans-104"/>
      <use x="566.015625" xlink:href="#DejaVuSans-105"/>
      <use x="593.798828" xlink:href="#DejaVuSans-115"/>
      <use x="645.898438" xlink:href="#DejaVuSans-111"/>
      <use x="707.080078" xlink:href="#DejaVuSans-116"/>
      <use x="746.289062" xlink:href="#DejaVuSans-105"/>
      <use x="774.072266" xlink:href="#DejaVuSans-114"/>
      <use x="815.185547" xlink:href="#DejaVuSans-121"/>
      <use x="867.115234" xlink:href="#DejaVuSans-58"/>
      <use x="900.806641" xlink:href="#DejaVuSans-32"/>
      <use x="932.59375" xlink:href="#DejaVuSans-49"/>
     </g>
    </g>
    <g id="line2d_44">
     <path d="M 656.524375 125.034219 
L 682.524375 125.034219 
" style="fill:none;stroke:#2ca02c;stroke-linecap:square;stroke-width:1.5;"/>
    </g>
    <g id="line2d_45"/>
    <g id="text_19">
     <!-- weinghts_hisotiry: 2 -->
     <g transform="translate(692.924375 129.584219)scale(0.13 -0.13)">
      <use xlink:href="#DejaVuSans-119"/>
      <use x="81.787109" xlink:href="#DejaVuSans-101"/>
      <use x="143.310547" xlink:href="#DejaVuSans-105"/>
      <use x="171.09375" xlink:href="#DejaVuSans-110"/>
      <use x="234.472656" xlink:href="#DejaVuSans-103"/>
      <use x="297.949219" xlink:href="#DejaVuSans-104"/>
      <use x="361.328125" xlink:href="#DejaVuSans-116"/>
      <use x="400.537109" xlink:href="#DejaVuSans-115"/>
      <use x="452.636719" xlink:href="#DejaVuSans-95"/>
      <use x="502.636719" xlink:href="#DejaVuSans-104"/>
      <use x="566.015625" xlink:href="#DejaVuSans-105"/>
      <use x="593.798828" xlink:href="#DejaVuSans-115"/>
      <use x="645.898438" xlink:href="#DejaVuSans-111"/>
      <use x="707.080078" xlink:href="#DejaVuSans-116"/>
      <use x="746.289062" xlink:href="#DejaVuSans-105"/>
      <use x="774.072266" xlink:href="#DejaVuSans-114"/>
      <use x="815.185547" xlink:href="#DejaVuSans-121"/>
      <use x="867.115234" xlink:href="#DejaVuSans-58"/>
      <use x="900.806641" xlink:href="#DejaVuSans-32"/>
      <use x="932.59375" xlink:href="#DejaVuSans-50"/>
     </g>
    </g>
    <g id="line2d_46">
     <path d="M 656.524375 144.477344 
L 682.524375 144.477344 
" style="fill:none;stroke:#d62728;stroke-linecap:square;stroke-width:1.5;"/>
    </g>
    <g id="line2d_47"/>
    <g id="text_20">
     <!-- weinghts_hisotiry: 3 -->
     <g transform="translate(692.924375 149.027344)scale(0.13 -0.13)">
      <use xlink:href="#DejaVuSans-119"/>
      <use x="81.787109" xlink:href="#DejaVuSans-101"/>
      <use x="143.310547" xlink:href="#DejaVuSans-105"/>
      <use x="171.09375" xlink:href="#DejaVuSans-110"/>
      <use x="234.472656" xlink:href="#DejaVuSans-103"/>
      <use x="297.949219" xlink:href="#DejaVuSans-104"/>
      <use x="361.328125" xlink:href="#DejaVuSans-116"/>
      <use x="400.537109" xlink:href="#DejaVuSans-115"/>
      <use x="452.636719" xlink:href="#DejaVuSans-95"/>
      <use x="502.636719" xlink:href="#DejaVuSans-104"/>
      <use x="566.015625" xlink:href="#DejaVuSans-105"/>
      <use x="593.798828" xlink:href="#DejaVuSans-115"/>
      <use x="645.898438" xlink:href="#DejaVuSans-111"/>
      <use x="707.080078" xlink:href="#DejaVuSans-116"/>
      <use x="746.289062" xlink:href="#DejaVuSans-105"/>
      <use x="774.072266" xlink:href="#DejaVuSans-114"/>
      <use x="815.185547" xlink:href="#DejaVuSans-121"/>
      <use x="867.115234" xlink:href="#DejaVuSans-58"/>
      <use x="900.806641" xlink:href="#DejaVuSans-32"/>
      <use x="932.59375" xlink:href="#DejaVuSans-51"/>
     </g>
    </g>
    <g id="line2d_48">
     <path d="M 656.524375 163.920469 
L 682.524375 163.920469 
" style="fill:none;stroke:#9467bd;stroke-linecap:square;stroke-width:1.5;"/>
    </g>
    <g id="line2d_49"/>
    <g id="text_21">
     <!-- weinghts_hisotiry: 4 -->
     <g transform="translate(692.924375 168.470469)scale(0.13 -0.13)">
      <use xlink:href="#DejaVuSans-119"/>
      <use x="81.787109" xlink:href="#DejaVuSans-101"/>
      <use x="143.310547" xlink:href="#DejaVuSans-105"/>
      <use x="171.09375" xlink:href="#DejaVuSans-110"/>
      <use x="234.472656" xlink:href="#DejaVuSans-103"/>
      <use x="297.949219" xlink:href="#DejaVuSans-104"/>
      <use x="361.328125" xlink:href="#DejaVuSans-116"/>
      <use x="400.537109" xlink:href="#DejaVuSans-115"/>
      <use x="452.636719" xlink:href="#DejaVuSans-95"/>
      <use x="502.636719" xlink:href="#DejaVuSans-104"/>
      <use x="566.015625" xlink:href="#DejaVuSans-105"/>
      <use x="593.798828" xlink:href="#DejaVuSans-115"/>
      <use x="645.898438" xlink:href="#DejaVuSans-111"/>
      <use x="707.080078" xlink:href="#DejaVuSans-116"/>
      <use x="746.289062" xlink:href="#DejaVuSans-105"/>
      <use x="774.072266" xlink:href="#DejaVuSans-114"/>
      <use x="815.185547" xlink:href="#DejaVuSans-121"/>
      <use x="867.115234" xlink:href="#DejaVuSans-58"/>
      <use x="900.806641" xlink:href="#DejaVuSans-32"/>
      <use x="932.59375" xlink:href="#DejaVuSans-52"/>
     </g>
    </g>
    <g id="line2d_50">
     <path d="M 656.524375 183.363594 
L 682.524375 183.363594 
" style="fill:none;stroke:#8c564b;stroke-linecap:square;stroke-width:1.5;"/>
    </g>
    <g id="line2d_51"/>
    <g id="text_22">
     <!-- weinghts_hisotiry: 5 -->
     <g transform="translate(692.924375 187.913594)scale(0.13 -0.13)">
      <use xlink:href="#DejaVuSans-119"/>
      <use x="81.787109" xlink:href="#DejaVuSans-101"/>
      <use x="143.310547" xlink:href="#DejaVuSans-105"/>
      <use x="171.09375" xlink:href="#DejaVuSans-110"/>
      <use x="234.472656" xlink:href="#DejaVuSans-103"/>
      <use x="297.949219" xlink:href="#DejaVuSans-104"/>
      <use x="361.328125" xlink:href="#DejaVuSans-116"/>
      <use x="400.537109" xlink:href="#DejaVuSans-115"/>
      <use x="452.636719" xlink:href="#DejaVuSans-95"/>
      <use x="502.636719" xlink:href="#DejaVuSans-104"/>
      <use x="566.015625" xlink:href="#DejaVuSans-105"/>
      <use x="593.798828" xlink:href="#DejaVuSans-115"/>
      <use x="645.898438" xlink:href="#DejaVuSans-111"/>
      <use x="707.080078" xlink:href="#DejaVuSans-116"/>
      <use x="746.289062" xlink:href="#DejaVuSans-105"/>
      <use x="774.072266" xlink:href="#DejaVuSans-114"/>
      <use x="815.185547" xlink:href="#DejaVuSans-121"/>
      <use x="867.115234" xlink:href="#DejaVuSans-58"/>
      <use x="900.806641" xlink:href="#DejaVuSans-32"/>
      <use x="932.59375" xlink:href="#DejaVuSans-53"/>
     </g>
    </g>
    <g id="line2d_52">
     <path d="M 656.524375 202.806719 
L 682.524375 202.806719 
" style="fill:none;stroke:#e377c2;stroke-linecap:square;stroke-width:1.5;"/>
    </g>
    <g id="line2d_53"/>
    <g id="text_23">
     <!-- weinghts_hisotiry: 6 -->
     <g transform="translate(692.924375 207.356719)scale(0.13 -0.13)">
      <defs>
       <path d="M 33.015625 40.375 
Q 26.375 40.375 22.484375 35.828125 
Q 18.609375 31.296875 18.609375 23.390625 
Q 18.609375 15.53125 22.484375 10.953125 
Q 26.375 6.390625 33.015625 6.390625 
Q 39.65625 6.390625 43.53125 10.953125 
Q 47.40625 15.53125 47.40625 23.390625 
Q 47.40625 31.296875 43.53125 35.828125 
Q 39.65625 40.375 33.015625 40.375 
z
M 52.59375 71.296875 
L 52.59375 62.3125 
Q 48.875 64.0625 45.09375 64.984375 
Q 41.3125 65.921875 37.59375 65.921875 
Q 27.828125 65.921875 22.671875 59.328125 
Q 17.53125 52.734375 16.796875 39.40625 
Q 19.671875 43.65625 24.015625 45.921875 
Q 28.375 48.1875 33.59375 48.1875 
Q 44.578125 48.1875 50.953125 41.515625 
Q 57.328125 34.859375 57.328125 23.390625 
Q 57.328125 12.15625 50.6875 5.359375 
Q 44.046875 -1.421875 33.015625 -1.421875 
Q 20.359375 -1.421875 13.671875 8.265625 
Q 6.984375 17.96875 6.984375 36.375 
Q 6.984375 53.65625 15.1875 63.9375 
Q 23.390625 74.21875 37.203125 74.21875 
Q 40.921875 74.21875 44.703125 73.484375 
Q 48.484375 72.75 52.59375 71.296875 
z
" id="DejaVuSans-54"/>
      </defs>
      <use xlink:href="#DejaVuSans-119"/>
      <use x="81.787109" xlink:href="#DejaVuSans-101"/>
      <use x="143.310547" xlink:href="#DejaVuSans-105"/>
      <use x="171.09375" xlink:href="#DejaVuSans-110"/>
      <use x="234.472656" xlink:href="#DejaVuSans-103"/>
      <use x="297.949219" xlink:href="#DejaVuSans-104"/>
      <use x="361.328125" xlink:href="#DejaVuSans-116"/>
      <use x="400.537109" xlink:href="#DejaVuSans-115"/>
      <use x="452.636719" xlink:href="#DejaVuSans-95"/>
      <use x="502.636719" xlink:href="#DejaVuSans-104"/>
      <use x="566.015625" xlink:href="#DejaVuSans-105"/>
      <use x="593.798828" xlink:href="#DejaVuSans-115"/>
      <use x="645.898438" xlink:href="#DejaVuSans-111"/>
      <use x="707.080078" xlink:href="#DejaVuSans-116"/>
      <use x="746.289062" xlink:href="#DejaVuSans-105"/>
      <use x="774.072266" xlink:href="#DejaVuSans-114"/>
      <use x="815.185547" xlink:href="#DejaVuSans-121"/>
      <use x="867.115234" xlink:href="#DejaVuSans-58"/>
      <use x="900.806641" xlink:href="#DejaVuSans-32"/>
      <use x="932.59375" xlink:href="#DejaVuSans-54"/>
     </g>
    </g>
    <g id="line2d_54">
     <path d="M 656.524375 222.249844 
L 682.524375 222.249844 
" style="fill:none;stroke:#7f7f7f;stroke-linecap:square;stroke-width:1.5;"/>
    </g>
    <g id="line2d_55"/>
    <g id="text_24">
     <!-- weinghts_hisotiry: 7 -->
     <g transform="translate(692.924375 226.799844)scale(0.13 -0.13)">
      <use xlink:href="#DejaVuSans-119"/>
      <use x="81.787109" xlink:href="#DejaVuSans-101"/>
      <use x="143.310547" xlink:href="#DejaVuSans-105"/>
      <use x="171.09375" xlink:href="#DejaVuSans-110"/>
      <use x="234.472656" xlink:href="#DejaVuSans-103"/>
      <use x="297.949219" xlink:href="#DejaVuSans-104"/>
      <use x="361.328125" xlink:href="#DejaVuSans-116"/>
      <use x="400.537109" xlink:href="#DejaVuSans-115"/>
      <use x="452.636719" xlink:href="#DejaVuSans-95"/>
      <use x="502.636719" xlink:href="#DejaVuSans-104"/>
      <use x="566.015625" xlink:href="#DejaVuSans-105"/>
      <use x="593.798828" xlink:href="#DejaVuSans-115"/>
      <use x="645.898438" xlink:href="#DejaVuSans-111"/>
      <use x="707.080078" xlink:href="#DejaVuSans-116"/>
      <use x="746.289062" xlink:href="#DejaVuSans-105"/>
      <use x="774.072266" xlink:href="#DejaVuSans-114"/>
      <use x="815.185547" xlink:href="#DejaVuSans-121"/>
      <use x="867.115234" xlink:href="#DejaVuSans-58"/>
      <use x="900.806641" xlink:href="#DejaVuSans-32"/>
      <use x="932.59375" xlink:href="#DejaVuSans-55"/>
     </g>
    </g>
    <g id="line2d_56">
     <path d="M 656.524375 241.692969 
L 682.524375 241.692969 
" style="fill:none;stroke:#bcbd22;stroke-linecap:square;stroke-width:1.5;"/>
    </g>
    <g id="line2d_57"/>
    <g id="text_25">
     <!-- weinghts_hisotiry: 8 -->
     <g transform="translate(692.924375 246.242969)scale(0.13 -0.13)">
      <defs>
       <path d="M 31.78125 34.625 
Q 24.75 34.625 20.71875 30.859375 
Q 16.703125 27.09375 16.703125 20.515625 
Q 16.703125 13.921875 20.71875 10.15625 
Q 24.75 6.390625 31.78125 6.390625 
Q 38.8125 6.390625 42.859375 10.171875 
Q 46.921875 13.96875 46.921875 20.515625 
Q 46.921875 27.09375 42.890625 30.859375 
Q 38.875 34.625 31.78125 34.625 
z
M 21.921875 38.8125 
Q 15.578125 40.375 12.03125 44.71875 
Q 8.5 49.078125 8.5 55.328125 
Q 8.5 64.0625 14.71875 69.140625 
Q 20.953125 74.21875 31.78125 74.21875 
Q 42.671875 74.21875 48.875 69.140625 
Q 55.078125 64.0625 55.078125 55.328125 
Q 55.078125 49.078125 51.53125 44.71875 
Q 48 40.375 41.703125 38.8125 
Q 48.828125 37.15625 52.796875 32.3125 
Q 56.78125 27.484375 56.78125 20.515625 
Q 56.78125 9.90625 50.3125 4.234375 
Q 43.84375 -1.421875 31.78125 -1.421875 
Q 19.734375 -1.421875 13.25 4.234375 
Q 6.78125 9.90625 6.78125 20.515625 
Q 6.78125 27.484375 10.78125 32.3125 
Q 14.796875 37.15625 21.921875 38.8125 
z
M 18.3125 54.390625 
Q 18.3125 48.734375 21.84375 45.5625 
Q 25.390625 42.390625 31.78125 42.390625 
Q 38.140625 42.390625 41.71875 45.5625 
Q 45.3125 48.734375 45.3125 54.390625 
Q 45.3125 60.0625 41.71875 63.234375 
Q 38.140625 66.40625 31.78125 66.40625 
Q 25.390625 66.40625 21.84375 63.234375 
Q 18.3125 60.0625 18.3125 54.390625 
z
" id="DejaVuSans-56"/>
      </defs>
      <use xlink:href="#DejaVuSans-119"/>
      <use x="81.787109" xlink:href="#DejaVuSans-101"/>
      <use x="143.310547" xlink:href="#DejaVuSans-105"/>
      <use x="171.09375" xlink:href="#DejaVuSans-110"/>
      <use x="234.472656" xlink:href="#DejaVuSans-103"/>
      <use x="297.949219" xlink:href="#DejaVuSans-104"/>
      <use x="361.328125" xlink:href="#DejaVuSans-116"/>
      <use x="400.537109" xlink:href="#DejaVuSans-115"/>
      <use x="452.636719" xlink:href="#DejaVuSans-95"/>
      <use x="502.636719" xlink:href="#DejaVuSans-104"/>
      <use x="566.015625" xlink:href="#DejaVuSans-105"/>
      <use x="593.798828" xlink:href="#DejaVuSans-115"/>
      <use x="645.898438" xlink:href="#DejaVuSans-111"/>
      <use x="707.080078" xlink:href="#DejaVuSans-116"/>
      <use x="746.289062" xlink:href="#DejaVuSans-105"/>
      <use x="774.072266" xlink:href="#DejaVuSans-114"/>
      <use x="815.185547" xlink:href="#DejaVuSans-121"/>
      <use x="867.115234" xlink:href="#DejaVuSans-58"/>
      <use x="900.806641" xlink:href="#DejaVuSans-32"/>
      <use x="932.59375" xlink:href="#DejaVuSans-56"/>
     </g>
    </g>
    <g id="line2d_58">
     <path d="M 656.524375 261.136094 
L 682.524375 261.136094 
" style="fill:none;stroke:#17becf;stroke-linecap:square;stroke-width:1.5;"/>
    </g>
    <g id="line2d_59"/>
    <g id="text_26">
     <!-- weinghts_hisotiry: 9 -->
     <g transform="translate(692.924375 265.686094)scale(0.13 -0.13)">
      <defs>
       <path d="M 10.984375 1.515625 
L 10.984375 10.5 
Q 14.703125 8.734375 18.5 7.8125 
Q 22.3125 6.890625 25.984375 6.890625 
Q 35.75 6.890625 40.890625 13.453125 
Q 46.046875 20.015625 46.78125 33.40625 
Q 43.953125 29.203125 39.59375 26.953125 
Q 35.25 24.703125 29.984375 24.703125 
Q 19.046875 24.703125 12.671875 31.3125 
Q 6.296875 37.9375 6.296875 49.421875 
Q 6.296875 60.640625 12.9375 67.421875 
Q 19.578125 74.21875 30.609375 74.21875 
Q 43.265625 74.21875 49.921875 64.515625 
Q 56.59375 54.828125 56.59375 36.375 
Q 56.59375 19.140625 48.40625 8.859375 
Q 40.234375 -1.421875 26.421875 -1.421875 
Q 22.703125 -1.421875 18.890625 -0.6875 
Q 15.09375 0.046875 10.984375 1.515625 
z
M 30.609375 32.421875 
Q 37.25 32.421875 41.125 36.953125 
Q 45.015625 41.5 45.015625 49.421875 
Q 45.015625 57.28125 41.125 61.84375 
Q 37.25 66.40625 30.609375 66.40625 
Q 23.96875 66.40625 20.09375 61.84375 
Q 16.21875 57.28125 16.21875 49.421875 
Q 16.21875 41.5 20.09375 36.953125 
Q 23.96875 32.421875 30.609375 32.421875 
z
" id="DejaVuSans-57"/>
      </defs>
      <use xlink:href="#DejaVuSans-119"/>
      <use x="81.787109" xlink:href="#DejaVuSans-101"/>
      <use x="143.310547" xlink:href="#DejaVuSans-105"/>
      <use x="171.09375" xlink:href="#DejaVuSans-110"/>
      <use x="234.472656" xlink:href="#DejaVuSans-103"/>
      <use x="297.949219" xlink:href="#DejaVuSans-104"/>
      <use x="361.328125" xlink:href="#DejaVuSans-116"/>
      <use x="400.537109" xlink:href="#DejaVuSans-115"/>
      <use x="452.636719" xlink:href="#DejaVuSans-95"/>
      <use x="502.636719" xlink:href="#DejaVuSans-104"/>
      <use x="566.015625" xlink:href="#DejaVuSans-105"/>
      <use x="593.798828" xlink:href="#DejaVuSans-115"/>
      <use x="645.898438" xlink:href="#DejaVuSans-111"/>
      <use x="707.080078" xlink:href="#DejaVuSans-116"/>
      <use x="746.289062" xlink:href="#DejaVuSans-105"/>
      <use x="774.072266" xlink:href="#DejaVuSans-114"/>
      <use x="815.185547" xlink:href="#DejaVuSans-121"/>
      <use x="867.115234" xlink:href="#DejaVuSans-58"/>
      <use x="900.806641" xlink:href="#DejaVuSans-32"/>
      <use x="932.59375" xlink:href="#DejaVuSans-57"/>
     </g>
    </g>
    <g id="line2d_60">
     <path d="M 656.524375 280.579219 
L 682.524375 280.579219 
" style="fill:none;stroke:#1f77b4;stroke-linecap:square;stroke-width:1.5;"/>
    </g>
    <g id="line2d_61"/>
    <g id="text_27">
     <!-- weinghts_hisotiry: 10 -->
     <g transform="translate(692.924375 285.129219)scale(0.13 -0.13)">
      <use xlink:href="#DejaVuSans-119"/>
      <use x="81.787109" xlink:href="#DejaVuSans-101"/>
      <use x="143.310547" xlink:href="#DejaVuSans-105"/>
      <use x="171.09375" xlink:href="#DejaVuSans-110"/>
      <use x="234.472656" xlink:href="#DejaVuSans-103"/>
      <use x="297.949219" xlink:href="#DejaVuSans-104"/>
      <use x="361.328125" xlink:href="#DejaVuSans-116"/>
      <use x="400.537109" xlink:href="#DejaVuSans-115"/>
      <use x="452.636719" xlink:href="#DejaVuSans-95"/>
      <use x="502.636719" xlink:href="#DejaVuSans-104"/>
      <use x="566.015625" xlink:href="#DejaVuSans-105"/>
      <use x="593.798828" xlink:href="#DejaVuSans-115"/>
      <use x="645.898438" xlink:href="#DejaVuSans-111"/>
      <use x="707.080078" xlink:href="#DejaVuSans-116"/>
      <use x="746.289062" xlink:href="#DejaVuSans-105"/>
      <use x="774.072266" xlink:href="#DejaVuSans-114"/>
      <use x="815.185547" xlink:href="#DejaVuSans-121"/>
      <use x="867.115234" xlink:href="#DejaVuSans-58"/>
      <use x="900.806641" xlink:href="#DejaVuSans-32"/>
      <use x="932.59375" xlink:href="#DejaVuSans-49"/>
      <use x="996.216797" xlink:href="#DejaVuSans-48"/>
     </g>
    </g>
   </g>
  </g>
 </g>
 <defs>
  <clipPath id="pc8bfcbb456">
   <rect height="434.88" width="725.4" x="117" y="69.12"/>
  </clipPath>
 </defs>
</svg>
